<svg id="svg" version="1.1" xmlns="http://www.w3.org/2000/svg" xmlns:xlink="http://www.w3.org/1999/xlink" width="400" height="400" viewBox="0, 0, 400,400"><g id="svgg"><path id="path0" d="M152.111 91.554 C 151.086 91.750,150.900 91.923,151.205 92.400 C 152.961 95.151,151.023 97.985,147.380 97.994 C 143.718 98.003,143.390 99.516,145.805 105.267 C 146.390 106.660,147.222 108.880,147.654 110.200 C 152.515 125.074,167.482 143.614,178.087 147.897 C 182.562 149.705,190.405 150.086,193.149 148.629 C 193.727 148.322,194.830 147.845,195.600 147.570 C 199.162 146.295,205.565 141.036,207.581 137.731 C 207.960 137.109,208.586 136.340,208.971 136.021 C 209.949 135.213,213.355 128.286,214.181 125.424 C 216.855 116.156,210.801 109.239,193.398 101.679 C 189.294 99.897,184.265 97.969,182.200 97.387 C 180.880 97.014,178.000 96.179,175.800 95.531 C 169.879 93.784,169.356 93.662,165.000 92.994 C 162.800 92.656,159.920 92.213,158.600 92.009 C 154.502 91.374,153.443 91.300,152.111 91.554 M252.600 109.233 C 247.515 109.592,241.512 110.793,239.084 111.938 C 238.158 112.375,236.468 113.124,235.329 113.603 C 228.926 116.295,229.141 123.681,236.000 136.655 C 250.754 164.562,270.127 167.086,281.799 142.620 C 285.000 135.911,287.200 127.665,287.200 122.379 C 287.200 119.660,287.334 119.786,283.563 118.992 C 279.106 118.055,278.162 116.744,280.400 114.600 C 282.376 112.707,281.238 111.925,274.400 110.480 C 267.247 108.967,261.242 108.624,252.600 109.233 M236.569 276.496 C 235.486 277.683,233.790 279.668,232.800 280.907 C 231.810 282.146,230.402 283.453,229.671 283.812 C 228.940 284.171,226.902 285.845,225.143 287.533 C 223.384 289.220,221.330 290.917,220.580 291.305 C 219.830 291.694,218.819 292.548,218.334 293.204 C 217.849 293.860,216.721 294.777,215.826 295.243 C 214.932 295.709,212.760 297.129,211.000 298.397 C 207.977 300.575,200.799 305.104,198.191 306.478 C 197.536 306.823,195.947 307.659,194.660 308.336 C 188.723 311.457,188.115 313.020,191.402 316.709 C 192.505 317.948,196.000 323.166,196.000 323.575 C 196.000 323.723,197.035 325.074,198.300 326.578 C 199.565 328.081,200.932 329.871,201.338 330.555 C 201.744 331.240,202.398 332.160,202.791 332.600 C 203.185 333.040,203.782 333.940,204.119 334.600 C 204.456 335.260,205.067 336.160,205.477 336.600 C 205.887 337.040,206.644 337.999,207.161 338.731 C 207.677 339.464,208.482 340.483,208.950 340.997 C 209.417 341.511,210.520 342.870,211.400 344.016 C 212.280 345.163,214.094 347.384,215.430 348.954 C 216.767 350.523,218.387 352.615,219.030 353.603 C 219.673 354.592,220.412 355.626,220.673 355.902 C 220.934 356.179,221.262 356.764,221.401 357.202 C 221.540 357.641,221.822 358.000,222.027 358.000 C 222.232 358.000,222.400 358.202,222.400 358.449 C 222.400 358.758,222.212 358.742,221.796 358.397 C 221.299 357.984,220.910 358.092,219.588 359.008 C 218.199 359.971,217.847 360.059,216.973 359.660 C 216.417 359.407,215.611 359.200,215.181 359.200 C 214.752 359.200,214.400 359.016,214.400 358.791 C 214.400 358.567,213.931 358.169,213.358 357.908 C 211.943 357.263,208.000 353.610,208.000 352.944 C 208.000 352.648,207.633 352.180,207.185 351.903 C 206.737 351.627,205.927 350.467,205.386 349.327 C 204.845 348.187,204.053 347.144,203.627 347.008 C 203.200 346.873,202.794 346.373,202.725 345.897 C 202.649 345.373,202.226 344.945,201.649 344.810 C 200.990 344.656,200.492 344.059,200.025 342.864 C 199.092 340.477,197.212 339.801,195.400 341.201 C 195.180 341.371,194.010 341.611,192.800 341.734 C 191.590 341.857,190.959 341.856,191.398 341.731 C 192.016 341.555,194.887 339.800,195.957 338.945 C 196.043 338.876,195.880 338.537,195.594 338.193 C 195.233 337.758,194.946 337.694,194.657 337.983 C 193.934 338.706,193.122 338.476,193.392 337.624 C 193.561 337.092,193.390 336.715,192.846 336.425 C 192.411 336.192,191.951 335.676,191.825 335.279 C 191.288 333.588,185.832 331.894,184.254 332.928 C 182.641 333.985,182.560 339.447,184.141 340.508 C 184.465 340.725,184.394 340.973,183.900 341.352 C 183.515 341.647,183.200 342.264,183.200 342.724 C 183.200 343.184,183.515 343.744,183.900 343.968 C 184.556 344.350,184.557 344.376,183.910 344.388 C 182.826 344.407,181.880 346.656,182.107 348.673 C 182.215 349.630,182.171 350.494,182.010 350.594 C 181.848 350.694,181.598 349.242,181.454 347.368 C 181.124 343.073,180.504 342.000,178.354 342.000 C 176.031 342.000,176.478 341.260,178.885 341.121 C 181.490 340.970,181.709 340.285,181.135 334.087 C 180.694 329.326,180.566 329.579,183.905 328.603 C 187.639 327.511,187.839 326.894,184.439 326.953 C 181.436 327.004,181.343 326.973,181.138 325.834 C 181.027 325.217,181.374 324.972,182.932 324.568 C 183.994 324.292,185.178 323.782,185.563 323.433 C 186.886 322.236,187.503 322.639,187.806 324.900 C 188.124 327.282,188.746 328.151,190.927 329.265 C 192.548 330.092,195.142 329.734,195.246 328.669 C 195.271 328.411,195.352 327.682,195.426 327.049 C 195.523 326.218,195.260 325.597,194.480 324.813 C 193.886 324.215,193.130 322.950,192.800 322.001 C 191.957 319.576,191.269 319.256,189.136 320.300 C 187.126 321.284,182.104 322.225,180.753 321.872 C 179.317 321.496,174.297 322.755,174.554 323.426 C 174.670 323.727,174.593 324.081,174.383 324.211 C 174.172 324.341,173.999 324.752,173.998 325.124 C 173.997 325.496,173.547 326.686,172.998 327.768 C 172.449 328.850,172.000 330.029,172.000 330.388 C 172.000 330.747,171.791 331.249,171.535 331.505 C 171.279 331.761,171.076 332.922,171.083 334.085 C 171.106 337.845,171.149 338.044,171.900 337.918 C 172.454 337.824,172.600 338.088,172.600 339.181 C 172.600 340.313,172.780 340.612,173.600 340.841 C 174.773 341.169,174.722 341.195,172.541 341.384 C 171.628 341.463,170.515 341.724,170.067 341.964 C 169.619 342.204,168.782 342.400,168.206 342.400 C 167.088 342.400,166.129 343.998,165.870 346.294 C 165.801 346.902,165.532 347.793,165.272 348.274 C 165.013 348.754,164.800 349.589,164.800 350.128 C 164.800 350.717,164.423 351.355,163.855 351.727 C 163.244 352.128,162.824 352.889,162.664 353.887 C 162.529 354.735,161.996 356.263,161.479 357.283 C 160.963 358.302,160.014 360.701,159.371 362.613 C 158.514 365.155,157.971 366.177,157.347 366.417 C 156.878 366.597,155.645 367.728,154.607 368.930 C 152.625 371.226,151.388 371.778,149.200 371.340 C 147.420 370.984,147.007 372.180,153.609 358.600 C 161.623 342.116,163.147 338.881,164.367 335.769 C 165.528 332.809,168.339 322.635,168.961 319.141 C 169.104 318.338,169.583 317.221,170.025 316.659 L 170.829 315.637 169.914 315.063 C 169.411 314.747,167.290 314.187,165.200 313.818 C 158.895 312.706,157.929 312.435,154.600 310.844 C 152.840 310.003,150.770 309.070,150.000 308.772 C 149.230 308.473,147.990 307.818,147.244 307.315 C 146.498 306.812,145.594 306.400,145.233 306.400 C 144.873 306.400,144.223 306.156,143.789 305.858 C 143.355 305.560,141.932 304.726,140.627 304.005 C 135.051 300.925,127.909 295.265,127.180 293.348 C 126.122 290.564,125.685 293.262,126.444 297.893 L 126.888 300.600 125.258 304.077 C 123.788 307.214,123.319 307.810,120.463 310.172 C 118.722 311.612,117.012 313.227,116.663 313.760 C 116.314 314.293,115.347 314.946,114.514 315.213 C 113.681 315.479,112.550 316.109,112.000 316.614 C 109.759 318.671,106.483 320.861,104.587 321.570 C 103.480 321.985,100.430 323.421,97.809 324.762 C 95.188 326.103,92.889 327.200,92.700 327.200 C 92.511 327.200,91.601 327.537,90.678 327.950 C 86.767 329.697,81.181 332.000,80.853 332.000 C 80.188 332.000,75.834 334.063,73.212 335.621 C 71.771 336.477,69.595 337.520,68.377 337.939 C 65.616 338.889,62.994 340.196,61.299 341.467 C 60.583 342.003,59.413 342.646,58.699 342.895 C 57.985 343.143,55.240 344.504,52.600 345.919 C 49.960 347.334,45.100 349.560,41.800 350.865 C 38.500 352.171,34.811 353.635,33.603 354.120 C 29.180 355.892,23.268 359.727,18.521 363.902 C 16.757 365.454,14.907 366.685,13.744 367.081 C 10.924 368.042,5.364 373.833,3.325 377.932 C 2.401 379.791,1.445 381.156,0.900 381.395 C 0.005 381.788,0.000 381.836,0.000 390.895 L 0.000 400.000 93.400 400.000 C 144.770 400.000,186.798 399.865,186.795 399.700 C 186.793 399.535,186.525 398.410,186.200 397.200 C 185.362 394.076,185.414 393.600,186.600 393.600 C 187.357 393.600,187.600 393.391,187.600 392.738 C 187.600 391.942,187.654 391.925,188.301 392.510 C 190.892 394.855,196.870 393.876,198.195 390.890 C 198.667 389.825,199.461 389.729,199.766 390.700 C 200.448 392.865,197.760 396.984,195.374 397.431 C 194.632 397.570,193.525 398.160,192.913 398.742 L 191.800 399.800 290.179 399.901 C 344.288 399.956,388.685 399.866,388.841 399.701 C 389.714 398.770,385.851 380.807,384.275 378.467 C 383.731 377.660,383.164 376.280,383.015 375.400 C 382.391 371.732,376.935 364.387,373.510 362.604 C 372.057 361.848,369.733 359.635,364.951 354.453 C 362.826 352.150,360.580 350.389,357.041 348.250 C 356.359 347.837,355.294 347.148,354.675 346.719 C 354.057 346.290,352.437 345.519,351.075 345.006 C 346.226 343.176,344.448 342.417,343.133 341.616 C 342.400 341.169,341.565 340.802,341.278 340.801 C 340.731 340.800,337.866 339.420,333.800 337.199 C 327.539 333.779,319.221 329.470,317.600 328.805 C 316.610 328.399,313.515 326.904,310.722 325.482 C 307.929 324.061,305.173 322.780,304.598 322.635 C 304.024 322.491,301.989 321.510,300.077 320.456 C 298.165 319.402,296.266 318.416,295.859 318.266 C 295.451 318.116,292.391 316.411,289.059 314.477 C 281.401 310.033,279.187 308.904,276.200 307.923 C 270.642 306.097,258.534 299.597,257.180 297.713 C 256.238 296.400,255.237 295.638,253.257 294.725 C 251.796 294.050,249.984 293.207,249.231 292.849 C 247.748 292.146,245.740 289.657,244.350 286.800 C 242.747 283.504,240.487 280.000,239.966 280.000 C 239.765 280.000,239.594 279.145,239.586 278.100 C 239.558 274.362,238.856 273.989,236.569 276.496 M182.176 315.387 C 181.637 315.795,181.572 315.978,181.962 315.987 C 182.388 315.997,182.343 316.199,181.779 316.823 C 179.910 318.888,183.368 319.760,186.085 317.908 C 187.954 316.635,187.103 315.293,184.711 315.741 C 183.488 315.969,183.452 315.946,184.176 315.393 C 184.927 314.820,184.919 314.800,183.953 314.800 C 183.403 314.800,182.604 315.064,182.176 315.387 M189.800 340.000 C 189.944 340.233,189.537 340.400,188.824 340.400 C 188.151 340.400,187.600 340.580,187.600 340.800 C 187.600 341.020,187.409 341.200,187.176 341.200 C 186.525 341.200,187.178 340.386,188.141 339.997 C 189.296 339.531,189.511 339.532,189.800 340.000 M238.219 342.363 C 237.536 343.684,237.200 343.921,237.200 343.081 C 237.200 342.532,238.492 340.758,238.723 340.990 C 238.798 341.064,238.571 341.682,238.219 342.363 M190.000 342.561 C 190.000 342.649,189.471 342.906,188.824 343.132 C 187.858 343.468,187.687 343.440,187.867 342.971 C 188.054 342.482,190.000 342.108,190.000 342.561 M237.014 345.157 C 236.868 345.617,236.040 346.890,235.174 347.985 C 234.308 349.080,233.600 350.317,233.600 350.734 C 233.600 351.363,233.143 352.148,231.704 353.988 C 231.623 354.092,231.379 353.912,231.162 353.588 C 230.816 353.074,230.775 353.075,230.831 353.600 C 230.957 354.780,230.791 355.200,230.200 355.200 C 229.372 355.200,227.920 356.703,228.439 357.024 C 228.960 357.346,227.654 358.370,226.700 358.387 C 226.315 358.394,226.000 358.537,226.000 358.704 C 226.000 359.088,224.382 360.116,224.148 359.881 C 223.946 359.680,227.528 355.148,228.237 354.705 C 228.497 354.543,229.309 353.463,230.042 352.305 C 230.774 351.147,231.471 350.110,231.589 350.000 C 231.707 349.890,232.856 348.387,234.142 346.660 C 236.375 343.660,237.711 342.961,237.014 345.157 M132.324 356.934 C 133.036 358.108,133.929 359.413,134.309 359.834 C 135.603 361.269,138.259 364.992,140.932 369.118 C 143.618 373.264,144.434 375.171,142.621 373.063 C 142.030 372.375,141.452 372.044,141.160 372.225 C 140.846 372.419,140.780 372.355,140.973 372.044 C 141.324 371.476,140.471 370.309,139.944 370.635 C 139.523 370.895,138.033 369.247,138.013 368.500 C 138.006 368.225,137.775 367.995,137.500 367.990 C 137.225 367.984,136.673 367.219,136.273 366.290 C 135.873 365.360,135.378 364.285,135.173 363.900 C 134.968 363.515,134.650 362.885,134.468 362.500 C 133.862 361.225,132.708 359.028,131.525 356.900 C 129.997 354.149,130.654 354.177,132.324 356.934 M184.725 357.531 C 184.845 358.742,184.786 358.800,183.425 358.800 C 181.692 358.800,181.338 357.241,182.900 356.490 C 184.191 355.869,184.583 356.093,184.725 357.531 M197.412 359.844 C 197.155 361.901,196.960 362.210,194.169 364.992 C 192.536 366.620,191.200 368.197,191.200 368.496 C 191.200 369.740,190.305 370.006,188.946 369.167 C 187.342 368.175,186.483 368.516,185.229 370.640 C 184.156 372.459,184.208 372.525,183.220 368.091 C 182.082 362.979,182.121 362.080,183.500 361.760 C 184.105 361.619,184.790 361.268,185.023 360.980 C 185.368 360.554,185.886 360.604,187.823 361.255 C 191.892 362.621,193.634 362.026,196.120 358.421 C 197.519 356.393,197.804 356.706,197.412 359.844 M186.947 388.900 C 187.105 389.493,186.959 389.971,186.517 390.300 C 185.465 391.085,185.200 390.904,185.200 389.400 C 185.200 387.738,186.535 387.356,186.947 388.900 " stroke="none" fill="#bf7e18" fill-rule="evenodd"></path><path id="path1" d="M161.400 45.984 C 157.927 46.429,153.526 47.397,152.513 47.939 C 152.032 48.197,149.783 48.846,147.515 49.382 C 144.863 50.009,141.966 51.063,139.396 52.338 C 137.198 53.429,134.950 54.453,134.400 54.615 C 133.117 54.993,129.255 57.744,128.506 58.813 C 127.899 59.680,125.674 61.268,123.201 62.600 C 121.586 63.470,116.590 67.768,114.625 69.979 C 113.951 70.737,112.095 72.688,110.500 74.314 C 108.905 75.940,107.600 77.437,107.600 77.641 C 107.600 77.845,106.054 79.584,104.164 81.506 C 102.274 83.428,100.054 85.990,99.229 87.200 C 91.151 99.052,86.027 109.424,85.001 116.000 C 84.847 116.990,84.398 118.544,84.003 119.454 C 83.021 121.717,82.680 124.033,83.148 125.262 C 83.430 126.005,83.333 127.215,82.795 129.644 C 81.771 134.269,81.938 142.844,83.142 147.400 C 83.607 149.160,84.162 152.580,84.377 155.000 C 84.591 157.420,85.115 160.660,85.541 162.200 C 87.786 170.318,87.700 169.243,86.407 173.046 C 83.126 182.692,83.645 198.538,87.440 204.600 C 87.715 205.040,88.063 206.069,88.212 206.886 C 88.362 207.703,88.749 208.592,89.073 208.861 C 89.397 209.130,90.091 210.196,90.615 211.229 C 91.447 212.871,96.069 217.463,102.463 222.998 C 103.531 223.923,106.625 224.800,108.819 224.800 C 110.037 224.800,113.200 227.225,113.200 228.159 C 113.200 228.415,114.012 229.879,115.004 231.412 C 117.038 234.554,117.922 237.260,119.182 244.200 C 119.661 246.840,120.211 249.540,120.404 250.200 C 120.906 251.913,124.186 268.304,125.446 275.400 C 126.197 279.629,126.528 282.941,126.567 286.620 L 126.621 291.841 128.011 293.562 C 135.476 302.809,158.189 314.000,169.491 314.000 C 171.336 314.000,175.012 315.092,175.615 315.819 C 176.269 316.606,177.704 316.550,179.288 315.675 C 180.948 314.757,186.846 312.395,187.469 312.398 C 187.727 312.399,188.447 311.976,189.069 311.458 C 189.691 310.939,192.180 309.383,194.600 307.999 C 203.371 302.983,204.677 302.190,209.400 299.021 C 219.369 292.331,235.354 278.382,237.226 274.737 C 237.883 273.459,237.928 272.930,237.578 270.537 C 237.016 266.695,236.492 260.403,236.160 253.515 L 235.876 247.630 237.461 246.115 C 238.332 245.282,240.347 243.880,241.938 243.000 C 244.775 241.431,248.010 238.392,249.878 235.540 C 250.931 233.932,254.800 226.190,254.800 225.691 C 254.800 225.497,255.254 224.221,255.808 222.856 C 256.363 221.491,257.104 219.345,257.456 218.087 C 257.807 216.829,258.450 214.540,258.884 213.000 C 259.318 211.460,260.001 208.850,260.403 207.200 C 261.513 202.636,262.369 199.606,262.758 198.867 C 262.950 198.500,263.338 197.120,263.619 195.800 C 263.900 194.480,264.350 193.130,264.620 192.800 C 264.889 192.470,265.500 190.220,265.976 187.800 C 266.452 185.380,267.013 182.749,267.221 181.954 C 267.828 179.638,267.683 170.758,266.996 168.120 C 265.572 162.653,265.979 161.297,269.563 159.581 C 271.483 158.661,274.297 156.600,275.108 155.520 C 275.388 155.145,275.845 154.605,276.123 154.320 C 278.370 152.009,280.883 148.409,282.353 145.395 C 285.012 139.943,285.489 138.806,286.213 136.200 C 286.580 134.880,287.036 133.440,287.227 133.000 C 287.799 131.684,288.800 125.656,288.800 123.533 C 288.800 122.445,289.000 120.758,289.245 119.785 C 289.969 116.911,288.735 114.622,285.792 113.377 C 285.127 113.096,284.260 112.508,283.863 112.070 C 282.977 111.091,279.836 109.708,277.296 109.180 C 270.005 107.662,261.511 106.903,261.855 107.800 C 261.983 108.133,263.312 108.388,265.725 108.544 C 270.461 108.850,273.900 109.440,279.000 110.822 C 279.880 111.061,281.008 111.355,281.506 111.476 C 283.246 111.898,283.168 114.800,281.417 114.800 C 277.904 114.800,279.432 117.767,283.273 118.401 C 288.835 119.320,288.503 118.753,287.843 126.200 C 287.202 133.429,281.492 147.739,278.026 150.800 C 277.902 150.910,276.925 152.042,275.857 153.315 C 273.943 155.594,269.761 158.800,268.702 158.800 C 268.404 158.800,267.935 159.025,267.660 159.300 C 266.846 160.114,259.047 159.957,256.600 159.078 C 248.921 156.317,240.614 146.947,234.190 133.800 C 226.605 118.276,229.764 112.405,247.200 109.618 C 248.850 109.355,250.920 108.978,251.800 108.782 C 252.680 108.586,253.760 108.358,254.200 108.275 L 255.000 108.124 254.200 107.836 C 252.045 107.062,250.815 106.202,250.388 105.170 C 250.129 104.546,248.426 102.527,246.603 100.684 C 244.780 98.840,242.971 96.717,242.582 95.966 C 241.757 94.370,240.565 92.608,239.360 91.200 C 238.888 90.650,238.388 89.710,238.247 89.110 C 238.105 88.511,237.525 87.341,236.957 86.510 C 236.390 85.680,235.466 84.100,234.906 83.000 C 232.665 78.604,227.410 73.096,223.879 71.443 C 222.603 70.846,221.456 70.089,221.330 69.761 C 221.204 69.434,220.377 68.796,219.491 68.345 C 217.260 67.206,214.225 63.928,213.662 62.049 C 213.241 60.642,212.938 60.379,210.610 59.389 C 209.188 58.785,207.731 57.965,207.371 57.568 C 207.011 57.171,206.151 56.726,205.459 56.579 C 204.766 56.433,203.840 55.985,203.400 55.583 C 202.960 55.182,201.700 54.435,200.600 53.925 C 199.500 53.414,197.970 52.607,197.200 52.131 C 196.430 51.655,194.540 50.967,193.000 50.601 C 191.460 50.236,188.760 49.519,187.000 49.007 C 185.240 48.496,182.737 47.965,181.438 47.828 C 180.138 47.691,177.708 47.203,176.038 46.744 C 172.688 45.824,165.544 45.453,161.400 45.984 M191.200 70.919 C 191.200 71.095,190.615 71.486,189.900 71.789 C 188.880 72.221,188.743 72.396,189.264 72.599 C 189.629 72.741,190.475 72.575,191.144 72.229 C 192.744 71.402,193.439 71.436,194.095 72.372 C 194.931 73.564,197.036 73.661,196.875 72.500 C 196.806 72.005,196.896 71.602,197.075 71.605 C 198.046 71.622,199.200 72.157,199.200 72.591 C 199.200 72.907,199.567 73.019,200.200 72.898 C 201.293 72.689,201.576 73.464,200.720 74.320 C 200.370 74.670,200.364 74.800,200.700 74.800 C 200.953 74.800,201.325 74.506,201.526 74.146 C 201.862 73.546,201.999 73.554,203.155 74.237 C 204.173 74.839,204.562 74.891,205.174 74.509 C 205.816 74.108,206.030 74.186,206.575 75.018 C 206.938 75.572,207.607 76.001,208.109 76.003 C 208.679 76.004,209.246 76.437,209.681 77.203 C 210.485 78.615,211.094 78.741,211.272 77.531 C 211.438 76.402,212.400 76.071,212.400 77.143 C 212.400 77.588,212.203 78.075,211.962 78.223 C 211.393 78.575,213.530 80.002,214.227 79.734 C 214.882 79.483,215.708 81.018,215.760 82.586 C 215.793 83.596,215.982 83.821,216.881 83.925 C 217.515 83.998,218.061 84.361,218.201 84.804 C 218.512 85.782,219.984 86.266,220.450 85.543 C 220.717 85.128,220.860 85.217,221.052 85.921 C 221.231 86.574,221.551 86.806,222.152 86.720 C 223.031 86.593,224.400 88.231,224.400 89.410 C 224.400 90.122,225.256 90.184,225.920 89.520 C 226.293 89.147,226.400 89.324,226.400 90.320 C 226.400 91.024,226.226 91.600,226.013 91.600 C 225.337 91.600,226.022 92.712,226.828 92.923 C 227.674 93.144,227.860 94.380,227.154 95.086 C 226.908 95.332,226.503 95.931,226.254 96.417 C 225.481 97.922,222.796 98.748,222.097 97.696 C 221.766 97.196,221.289 96.944,220.934 97.081 C 220.488 97.252,220.458 97.388,220.818 97.611 C 221.091 97.780,221.166 98.131,220.990 98.416 C 220.748 98.808,220.574 98.779,220.216 98.289 C 219.667 97.538,218.952 97.883,218.743 99.000 C 218.646 99.520,218.220 99.843,217.526 99.924 C 216.939 99.992,216.243 100.307,215.980 100.624 C 215.717 100.941,215.266 101.200,214.978 101.200 C 214.690 101.200,214.341 101.556,214.203 101.992 C 213.719 103.516,208.800 104.395,208.800 102.957 C 208.800 102.651,208.620 102.400,208.400 102.400 C 208.180 102.400,208.000 102.200,208.000 101.955 C 208.000 101.672,208.470 101.597,209.300 101.749 C 210.554 101.978,212.025 101.492,211.541 101.007 C 211.411 100.877,210.101 100.762,208.629 100.751 C 206.178 100.732,205.923 100.649,205.587 99.765 C 205.296 98.999,204.931 98.800,203.824 98.800 C 202.870 98.800,202.301 98.563,202.028 98.053 C 201.808 97.642,201.037 97.183,200.314 97.034 C 199.069 96.776,199.040 96.732,199.766 96.188 C 200.494 95.644,200.459 95.584,199.066 95.002 C 198.260 94.665,197.600 94.237,197.600 94.050 C 197.600 93.864,197.168 93.794,196.639 93.895 C 195.913 94.033,195.611 93.865,195.402 93.205 L 195.124 92.332 194.218 93.183 L 193.313 94.034 192.056 92.603 L 190.800 91.172 190.800 92.386 C 190.800 93.838,190.712 93.855,189.157 92.705 C 188.278 92.055,187.326 91.792,185.674 91.745 C 182.160 91.643,179.595 91.294,179.052 90.843 C 178.781 90.618,178.152 90.540,177.656 90.670 C 176.962 90.851,176.701 90.708,176.530 90.053 C 176.306 89.196,175.600 88.852,175.600 89.600 C 175.600 89.820,175.330 90.000,175.000 90.000 C 174.670 90.000,174.400 89.820,174.400 89.600 C 174.400 89.380,174.023 89.200,173.563 89.200 C 173.062 89.200,172.641 88.879,172.516 88.400 C 172.280 87.498,171.595 87.365,170.880 88.080 C 170.507 88.453,170.400 88.374,170.400 87.723 C 170.400 86.375,172.893 85.824,173.370 87.067 C 173.534 87.492,173.765 87.595,174.010 87.350 C 174.255 87.105,174.216 86.496,173.902 85.665 C 173.494 84.584,173.508 84.304,173.987 84.008 C 174.477 83.705,174.482 83.501,174.023 82.643 C 173.318 81.326,174.819 79.493,176.300 79.862 C 177.383 80.132,177.540 79.064,176.613 77.740 C 176.084 76.984,176.104 76.830,176.816 76.186 C 177.544 75.526,177.556 75.414,176.966 74.762 C 176.339 74.069,175.268 74.142,174.750 74.914 C 174.598 75.139,174.405 75.132,174.258 74.894 C 173.951 74.398,175.380 72.714,175.775 73.107 C 176.032 73.365,176.936 73.450,180.721 73.575 C 181.228 73.592,182.038 73.387,182.521 73.121 C 183.005 72.854,183.716 72.685,184.103 72.744 C 184.490 72.803,185.087 72.570,185.432 72.226 C 185.776 71.882,186.489 71.600,187.016 71.600 C 187.619 71.600,187.904 71.414,187.783 71.100 C 187.647 70.746,188.116 70.600,189.396 70.600 C 190.388 70.600,191.200 70.744,191.200 70.919 M180.400 71.757 C 180.400 72.373,179.326 72.925,178.781 72.588 C 178.591 72.471,178.536 72.110,178.660 71.787 C 178.947 71.040,180.400 71.015,180.400 71.757 M172.800 75.024 C 172.800 75.341,172.440 75.600,172.000 75.600 C 171.127 75.600,170.893 74.577,171.700 74.287 C 172.377 74.045,172.800 74.328,172.800 75.024 M178.239 77.494 C 177.790 77.943,177.999 78.800,178.557 78.800 C 179.313 78.800,179.682 77.717,179.014 77.461 C 178.719 77.348,178.371 77.363,178.239 77.494 M156.200 90.577 C 154.749 91.183,157.880 91.650,164.200 91.771 C 168.912 91.861,170.698 92.278,169.706 93.057 C 169.090 93.541,169.331 93.588,171.600 93.421 C 173.030 93.316,173.883 93.327,173.495 93.445 C 172.210 93.838,173.221 94.406,174.765 94.159 C 175.965 93.967,176.336 94.057,176.541 94.590 C 176.740 95.110,177.080 95.202,178.028 94.994 C 178.946 94.792,179.383 94.897,179.756 95.407 C 180.072 95.840,181.125 96.201,182.628 96.393 C 183.932 96.559,184.685 96.719,184.300 96.748 C 183.368 96.817,183.396 97.600,184.331 97.600 C 184.733 97.600,186.170 98.050,187.523 98.600 C 188.877 99.150,190.348 99.600,190.792 99.600 C 191.236 99.600,191.600 99.736,191.600 99.902 C 191.600 100.069,192.185 100.445,192.900 100.738 C 195.238 101.696,199.377 103.745,200.462 104.480 C 201.046 104.876,201.811 105.200,202.162 105.200 C 202.513 105.200,202.800 105.350,202.800 105.532 C 202.800 105.715,203.295 106.120,203.900 106.432 C 204.505 106.744,205.090 107.101,205.200 107.226 C 205.310 107.351,206.300 108.063,207.400 108.808 C 211.201 111.383,213.528 114.025,214.021 116.325 C 214.265 117.462,214.630 118.495,214.832 118.620 C 217.653 120.363,211.748 133.981,205.148 140.953 C 192.083 154.755,174.816 152.263,161.390 134.637 C 160.736 133.778,159.822 132.608,159.361 132.037 C 153.691 125.031,146.985 111.960,144.462 103.000 C 142.557 96.231,142.482 96.609,145.613 97.202 C 149.383 97.917,150.262 97.770,150.761 96.340 C 151.428 94.428,151.324 93.194,150.500 93.232 C 150.082 93.250,150.001 93.344,150.300 93.465 C 152.655 94.415,149.274 95.433,145.063 95.042 C 141.198 94.683,140.179 92.800,143.849 92.800 C 144.592 92.800,145.200 92.620,145.200 92.400 C 145.200 92.180,145.009 92.000,144.776 92.000 C 144.543 92.000,144.464 91.820,144.600 91.600 C 144.736 91.380,145.557 91.200,146.424 91.200 C 147.547 91.200,148.000 91.030,148.000 90.609 C 148.000 90.120,148.808 90.023,152.700 90.047 C 156.853 90.073,157.260 90.134,156.200 90.577 M162.480 91.280 C 162.107 91.653,161.893 91.653,161.520 91.280 C 161.147 90.907,161.253 90.800,162.000 90.800 C 162.747 90.800,162.853 90.907,162.480 91.280 M224.000 91.400 C 224.000 91.730,224.270 92.000,224.600 92.000 C 224.930 92.000,225.200 91.730,225.200 91.400 C 225.200 91.070,224.930 90.800,224.600 90.800 C 224.270 90.800,224.000 91.070,224.000 91.400 M165.400 92.400 C 165.255 92.634,165.670 92.800,166.400 92.800 C 167.130 92.800,167.545 92.634,167.400 92.400 C 167.264 92.180,166.814 92.000,166.400 92.000 C 165.986 92.000,165.536 92.180,165.400 92.400 M257.907 107.490 C 258.626 107.579,259.706 107.577,260.307 107.486 C 260.908 107.395,260.320 107.322,259.000 107.324 C 257.680 107.326,257.188 107.401,257.907 107.490 M222.200 115.236 C 225.005 115.775,227.437 116.663,227.200 117.063 C 227.090 117.248,226.640 117.334,226.200 117.253 C 225.760 117.172,223.309 117.027,220.754 116.931 C 216.350 116.764,216.085 116.706,215.681 115.817 C 214.966 114.250,216.399 114.122,222.200 115.236 M225.721 141.498 C 227.796 142.710,229.594 145.362,229.241 146.689 L 228.945 147.800 223.755 148.020 C 218.730 148.233,218.441 148.295,214.631 149.966 C 208.181 152.795,203.998 151.208,207.577 147.289 C 208.677 146.085,209.171 145.835,210.222 145.952 C 210.454 145.978,211.254 145.369,212.000 144.600 C 212.746 143.830,213.639 143.200,213.984 143.200 C 214.328 143.200,214.929 142.776,215.318 142.258 C 215.802 141.612,216.312 141.371,216.937 141.490 C 217.483 141.594,218.076 141.390,218.415 140.982 C 219.162 140.082,223.865 140.414,225.721 141.498 M167.494 156.854 C 168.232 158.393,169.171 159.094,169.590 158.417 C 170.561 156.844,177.273 156.541,179.906 157.950 C 180.350 158.187,181.497 158.299,182.456 158.199 C 185.318 157.900,188.075 158.400,188.299 159.259 C 188.531 160.146,189.200 160.251,189.200 159.400 C 189.200 158.700,190.047 158.607,190.677 159.237 C 191.143 159.703,192.718 159.103,193.294 158.240 C 193.466 157.982,193.590 158.144,193.594 158.632 C 193.597 159.107,194.030 159.695,194.600 160.000 C 195.150 160.294,195.621 160.820,195.646 161.168 C 195.683 161.673,195.730 161.659,195.876 161.100 C 196.081 160.313,196.094 160.308,196.964 160.642 C 197.371 160.798,197.521 161.188,197.389 161.742 C 197.036 163.212,203.226 165.482,208.203 165.709 L 210.200 165.800 210.086 167.192 C 210.023 167.957,209.708 168.731,209.386 168.912 C 208.715 169.287,208.590 170.400,209.219 170.400 C 209.832 170.400,208.317 172.312,207.534 172.526 C 207.168 172.626,206.808 173.132,206.734 173.650 C 206.655 174.204,206.147 174.809,205.500 175.118 C 204.895 175.407,204.400 175.778,204.400 175.942 C 204.400 176.105,203.770 176.166,203.000 176.076 C 201.744 175.929,201.600 176.011,201.600 176.870 C 201.600 177.863,199.897 179.200,198.633 179.200 C 198.279 179.200,197.665 179.402,197.270 179.649 C 196.716 179.995,196.267 179.952,195.319 179.461 C 194.150 178.857,194.076 178.865,193.881 179.612 C 193.639 180.537,192.476 180.665,192.146 179.802 C 191.810 178.927,191.200 179.485,191.200 180.667 C 191.200 181.576,191.080 181.658,190.100 181.426 C 188.773 181.112,187.556 179.781,187.863 178.980 C 188.201 178.098,187.067 178.280,186.493 179.200 C 185.820 180.277,185.021 180.207,184.061 178.987 C 183.595 178.394,183.158 178.145,183.008 178.387 C 182.585 179.072,181.707 178.852,181.485 178.005 C 181.371 177.567,180.855 177.028,180.339 176.806 C 179.822 176.584,179.130 176.242,178.800 176.047 C 178.470 175.852,177.705 175.461,177.100 175.179 C 176.495 174.896,176.000 174.434,176.000 174.152 C 176.000 173.870,175.685 173.456,175.300 173.232 C 174.649 172.853,174.648 172.823,175.284 172.812 C 175.661 172.805,176.322 173.179,176.754 173.643 C 177.186 174.107,177.747 174.357,178.002 174.199 C 178.682 173.779,176.551 171.697,175.120 171.382 C 174.088 171.156,173.981 170.997,174.197 170.015 C 174.398 169.097,174.193 168.670,173.014 167.557 C 172.229 166.817,171.680 165.967,171.795 165.669 C 171.918 165.349,171.664 165.037,171.179 164.910 C 170.690 164.783,170.440 164.472,170.565 164.148 C 170.681 163.845,170.335 163.314,169.787 162.955 C 169.244 162.599,168.787 161.924,168.771 161.454 C 168.725 160.118,167.429 158.213,166.470 158.072 C 165.798 157.973,165.600 157.671,165.600 156.743 C 165.600 155.230,166.748 155.297,167.494 156.854 M228.484 169.248 C 230.658 170.045,230.860 170.055,232.656 169.443 C 237.454 167.808,244.438 172.253,247.960 179.184 C 249.308 181.836,249.715 185.717,248.687 186.111 C 247.728 186.479,243.404 185.513,242.561 184.743 C 240.517 182.874,237.916 182.388,228.533 182.125 C 219.464 181.870,219.487 181.868,215.800 183.428 C 208.796 186.392,201.679 185.568,204.400 182.109 C 204.840 181.550,205.200 180.871,205.200 180.601 C 205.200 179.369,213.141 172.472,217.000 170.354 C 221.565 167.847,224.018 167.611,228.484 169.248 M192.957 182.233 C 193.107 182.623,193.018 182.806,192.725 182.708 C 192.127 182.509,191.798 181.600,192.324 181.600 C 192.539 181.600,192.824 181.885,192.957 182.233 M231.880 185.184 C 238.478 185.693,241.724 187.102,246.475 191.520 C 248.699 193.587,248.621 194.059,245.870 195.159 C 242.377 196.557,227.349 196.990,223.602 195.801 C 223.215 195.678,221.392 195.324,219.549 195.015 C 205.953 192.732,201.197 190.980,205.337 189.780 C 205.812 189.643,207.550 188.943,209.200 188.226 C 215.925 185.302,220.574 184.264,225.200 184.654 C 226.410 184.756,229.416 184.994,231.880 185.184 M200.723 191.230 C 200.644 191.466,200.450 191.647,200.290 191.630 C 200.131 191.614,199.640 191.600,199.200 191.600 C 198.760 191.600,198.400 191.420,198.400 191.200 C 198.400 190.980,198.955 190.800,199.633 190.800 C 200.335 190.800,200.805 190.985,200.723 191.230 M85.685 195.600 C 85.782 196.260,85.713 196.800,85.531 196.800 C 85.349 196.800,85.200 196.260,85.200 195.600 C 85.200 194.940,85.270 194.400,85.355 194.400 C 85.440 194.400,85.588 194.940,85.685 195.600 M101.707 198.000 C 101.060 199.648,100.400 200.115,100.400 198.926 C 100.400 198.385,101.844 196.400,102.238 196.400 C 102.292 196.400,102.053 197.120,101.707 198.000 M93.600 197.600 C 93.600 198.044,93.333 198.400,93.000 198.400 C 92.391 198.400,92.179 197.554,92.667 197.067 C 93.174 196.560,93.600 196.803,93.600 197.600 M86.760 199.500 C 86.782 199.775,86.620 200.000,86.400 200.000 C 86.180 200.000,86.018 199.325,86.040 198.500 C 86.078 197.050,86.625 197.809,86.760 199.500 M225.139 209.243 C 224.843 209.429,224.285 209.484,223.900 209.364 C 223.515 209.244,223.200 209.338,223.200 209.573 C 223.200 209.808,223.965 210.002,224.900 210.005 C 227.253 210.013,228.400 210.381,228.400 211.127 C 228.400 211.619,228.507 211.653,228.880 211.280 C 229.715 210.445,232.534 210.682,233.130 211.637 C 233.518 212.258,233.904 212.411,234.626 212.229 C 235.802 211.934,235.889 212.511,234.830 213.570 C 234.344 214.056,234.141 214.653,234.280 215.185 C 234.589 216.367,231.687 219.042,230.123 219.018 C 229.420 219.007,229.039 219.190,229.103 219.509 C 229.160 219.789,228.755 220.189,228.203 220.399 C 227.651 220.609,227.197 221.010,227.194 221.290 C 227.189 221.680,227.107 221.672,226.845 221.259 C 226.599 220.871,226.288 220.827,225.751 221.104 C 222.200 222.934,213.752 222.197,212.917 219.986 C 212.388 218.584,211.623 218.425,211.546 219.700 L 211.491 220.600 211.318 219.700 C 211.222 219.205,210.887 218.800,210.572 218.800 C 209.783 218.800,209.850 217.633,210.656 217.323 C 211.249 217.096,211.241 217.019,210.578 216.534 C 210.008 216.117,209.950 215.890,210.321 215.519 C 210.585 215.255,210.800 214.536,210.800 213.920 C 210.800 213.304,210.980 212.800,211.200 212.800 C 211.420 212.800,211.600 212.476,211.600 212.080 C 211.600 211.174,212.354 210.400,213.237 210.400 C 213.610 210.400,214.009 210.153,214.125 209.851 C 214.405 209.122,217.108 208.626,217.776 209.180 C 218.148 209.489,218.596 209.451,219.376 209.046 C 220.029 208.707,221.069 208.566,221.994 208.690 C 223.046 208.831,223.822 208.689,224.464 208.237 C 225.334 207.625,225.410 207.625,225.539 208.241 C 225.616 208.606,225.436 209.057,225.139 209.243 M248.000 289.477 C 248.000 289.696,248.360 290.202,248.800 290.600 C 249.240 290.998,249.600 291.234,249.600 291.123 C 249.600 291.013,249.240 290.507,248.800 290.000 C 248.360 289.493,248.000 289.257,248.000 289.477 M258.800 297.089 C 258.800 297.592,259.943 298.590,260.212 298.321 C 260.318 298.215,260.044 297.802,259.602 297.402 C 259.161 297.003,258.800 296.862,258.800 297.089 M262.576 299.805 C 263.004 300.132,263.589 300.400,263.876 300.400 C 264.768 300.400,264.457 300.097,263.100 299.645 C 261.911 299.248,261.866 299.262,262.576 299.805 M115.402 312.398 C 115.003 312.839,114.862 313.200,115.089 313.200 C 115.592 313.200,116.590 312.057,116.321 311.788 C 116.215 311.682,115.802 311.956,115.402 312.398 M187.794 314.155 C 186.959 314.766,187.251 316.109,188.144 315.766 C 189.637 315.193,188.965 316.481,186.996 317.968 C 185.788 318.880,184.800 319.787,184.800 319.984 C 184.800 320.180,184.485 320.424,184.100 320.524 C 183.715 320.625,184.318 320.728,185.440 320.754 C 186.922 320.787,188.004 320.522,189.392 319.784 C 191.204 318.820,191.328 318.805,191.811 319.484 C 193.259 321.524,194.399 322.588,194.400 321.900 C 194.400 321.515,194.220 321.200,194.000 321.200 C 193.780 321.200,193.600 320.945,193.600 320.633 C 193.600 320.322,193.456 320.007,193.281 319.933 C 193.105 319.860,192.086 318.488,191.017 316.884 C 188.741 313.472,188.735 313.467,187.794 314.155 M170.060 316.940 C 169.856 317.193,169.126 319.740,168.438 322.600 C 165.831 333.437,164.185 337.633,156.216 353.774 C 150.380 365.593,148.794 369.345,149.929 368.644 C 150.179 368.489,150.750 368.559,151.197 368.799 C 151.818 369.131,151.986 369.115,151.906 368.735 C 151.848 368.461,151.980 368.222,152.200 368.205 C 152.853 368.154,155.996 366.023,156.050 365.595 C 156.220 364.249,156.861 362.639,157.527 361.881 C 157.874 361.485,158.191 360.939,158.231 360.667 C 158.298 360.215,158.885 358.898,161.917 352.400 C 162.481 351.190,163.208 350.003,163.532 349.761 C 163.990 349.420,164.032 349.064,163.722 348.161 C 163.285 346.893,163.453 345.862,164.037 346.223 C 164.240 346.348,164.525 346.124,164.671 345.725 C 164.817 345.326,165.356 344.491,165.868 343.869 C 166.381 343.247,166.800 342.500,166.800 342.209 C 166.800 341.858,167.648 341.573,169.300 341.367 C 170.675 341.195,171.485 340.985,171.100 340.898 C 170.290 340.717,170.188 339.972,170.879 339.281 C 171.250 338.910,171.186 338.678,170.594 338.245 C 169.919 337.752,169.891 337.557,170.348 336.555 C 170.704 335.773,170.730 335.377,170.432 335.277 C 169.828 335.076,169.894 334.166,170.612 332.777 C 171.047 331.936,171.110 331.380,170.831 330.858 C 170.525 330.286,170.743 329.661,171.819 328.027 C 172.579 326.874,173.200 325.597,173.200 325.189 C 173.200 324.781,173.372 324.341,173.583 324.211 C 173.793 324.081,173.863 323.709,173.739 323.385 C 173.467 322.675,175.716 321.627,177.687 321.546 C 178.627 321.507,178.744 321.442,178.100 321.318 C 177.461 321.195,177.200 320.862,177.200 320.172 C 177.200 319.195,176.435 318.765,176.360 319.700 C 176.338 319.975,176.199 319.766,176.051 319.236 C 175.533 317.385,171.079 315.678,170.060 316.940 M105.600 318.600 C 104.962 319.369,105.613 319.377,106.624 318.613 C 107.276 318.119,107.296 318.023,106.749 318.013 C 106.391 318.006,105.874 318.270,105.600 318.600 M179.804 319.194 C 179.451 319.765,180.650 321.600,181.377 321.600 C 182.972 321.600,183.748 320.675,182.500 320.261 C 182.115 320.134,181.412 319.742,180.938 319.391 C 180.341 318.949,179.992 318.889,179.804 319.194 M102.400 320.200 C 101.597 320.659,101.544 320.774,102.129 320.786 C 102.529 320.794,103.127 320.530,103.457 320.200 C 104.208 319.449,103.713 319.449,102.400 320.200 M308.000 322.800 C 308.000 323.020,308.405 323.197,308.900 323.194 C 309.628 323.189,309.685 323.114,309.200 322.800 C 308.424 322.299,308.000 322.299,308.000 322.800 M194.987 323.603 C 195.154 324.151,195.450 324.771,195.645 324.980 C 195.840 325.189,196.000 325.625,196.000 325.949 C 196.000 326.272,196.291 326.859,196.647 327.252 C 197.250 327.918,197.207 328.054,196.030 329.232 C 194.231 331.030,190.894 330.826,189.090 328.807 C 188.177 327.785,187.838 327.614,187.575 328.041 C 187.388 328.343,185.922 328.863,184.318 329.195 L 181.400 329.800 181.461 332.400 C 181.550 336.246,181.569 336.400,181.949 336.400 C 182.141 336.400,182.411 335.693,182.549 334.828 C 182.925 332.479,186.188 330.671,187.745 331.951 C 187.995 332.156,189.322 332.545,190.693 332.813 C 192.064 333.082,193.391 333.549,193.642 333.851 C 193.893 334.153,194.409 334.400,194.789 334.400 C 195.169 334.400,195.860 334.895,196.323 335.500 C 197.169 336.603,198.815 336.932,199.957 336.226 C 200.230 336.058,200.549 336.016,200.667 336.133 C 201.009 336.475,200.383 337.237,199.970 336.981 C 199.763 336.854,199.472 337.076,199.322 337.475 C 199.172 337.874,198.768 338.438,198.425 338.728 C 197.892 339.179,198.014 339.228,199.259 339.060 C 200.707 338.865,200.721 338.877,200.970 340.532 C 201.166 341.841,201.484 342.351,202.449 342.903 C 203.124 343.290,203.770 343.965,203.885 344.403 C 204.000 344.842,204.302 345.200,204.558 345.200 C 205.167 345.200,206.481 346.745,206.225 347.160 C 206.115 347.338,206.649 348.184,207.412 349.041 C 208.175 349.899,208.800 350.831,208.800 351.113 C 208.800 351.394,209.055 351.723,209.366 351.842 C 209.678 351.962,210.443 352.796,211.066 353.696 C 211.760 354.697,212.860 355.625,213.900 356.085 C 214.835 356.499,215.600 356.979,215.600 357.152 C 215.600 357.588,219.654 357.306,220.123 356.837 C 220.451 356.509,218.494 352.683,217.648 352.000 C 217.016 351.490,211.959 345.540,210.272 343.323 C 209.236 341.960,208.159 340.610,207.879 340.323 C 207.600 340.035,206.218 338.180,204.808 336.200 C 200.774 330.536,196.628 325.013,196.300 324.867 C 196.135 324.793,196.000 324.500,196.000 324.216 C 196.000 323.931,195.704 323.452,195.342 323.152 C 194.754 322.664,194.716 322.711,194.987 323.603 M95.000 323.978 C 94.120 324.395,93.679 324.750,94.020 324.768 C 94.802 324.808,96.793 323.900,96.797 323.500 C 96.801 323.113,96.864 323.096,95.000 323.978 M185.844 323.971 C 185.223 324.378,184.015 324.823,183.158 324.960 C 180.208 325.432,181.178 326.400,184.600 326.400 L 187.600 326.400 187.594 325.300 C 187.584 323.473,187.129 323.128,185.844 323.971 M87.200 327.400 C 86.290 327.920,86.273 327.973,87.020 327.986 C 87.471 327.994,88.011 327.837,88.220 327.639 C 88.429 327.440,88.960 327.191,89.400 327.085 C 90.051 326.929,90.014 326.887,89.200 326.861 C 88.650 326.843,87.750 327.086,87.200 327.400 M182.152 339.781 C 182.029 340.100,182.036 340.535,182.167 340.747 C 182.298 340.958,181.948 341.284,181.389 341.470 C 180.453 341.782,180.419 341.873,180.961 342.605 C 181.746 343.664,182.768 342.485,182.787 340.500 C 182.801 339.126,182.524 338.812,182.152 339.781 M55.600 342.200 C 55.020 342.532,54.852 342.772,55.200 342.773 C 55.530 342.774,56.149 342.510,56.576 342.187 C 57.564 341.440,56.915 341.448,55.600 342.200 M181.484 344.400 C 181.197 345.500,181.725 345.714,182.498 344.811 C 183.062 344.152,183.067 344.034,182.537 343.831 C 181.705 343.512,181.718 343.505,181.484 344.400 M233.200 348.649 C 233.200 349.180,233.309 349.208,233.800 348.800 C 234.130 348.526,234.400 348.234,234.400 348.151 C 234.400 348.068,234.130 348.000,233.800 348.000 C 233.470 348.000,233.200 348.292,233.200 348.649 M183.100 356.957 C 182.096 357.719,182.237 358.400,183.400 358.400 C 184.200 358.400,184.400 358.200,184.400 357.400 C 184.400 356.278,184.120 356.183,183.100 356.957 M22.800 357.800 C 22.166 358.563,22.761 358.556,23.776 357.787 C 24.398 357.317,24.428 357.200,23.925 357.200 C 23.580 357.200,23.074 357.470,22.800 357.800 M370.400 357.855 C 370.400 358.370,372.330 360.203,372.594 359.939 C 372.703 359.831,372.254 359.226,371.596 358.596 C 370.938 357.966,370.400 357.633,370.400 357.855 M196.216 358.751 C 195.283 361.690,190.943 363.359,187.873 361.960 C 187.164 361.637,186.299 361.647,184.614 361.997 L 182.320 362.473 182.598 364.337 C 183.039 367.295,183.899 369.081,184.507 368.304 C 184.914 367.785,185.413 367.734,187.355 368.010 C 189.635 368.335,192.400 367.183,192.400 365.907 C 192.400 365.746,193.228 364.756,194.240 363.707 C 196.032 361.850,196.532 361.006,197.040 358.982 C 197.329 357.832,196.575 357.620,196.216 358.751 M19.496 360.216 C 18.046 361.561,18.101 361.868,19.600 360.800 C 20.260 360.330,20.800 359.778,20.800 359.573 C 20.800 359.043,20.718 359.083,19.496 360.216 M14.400 364.400 C 13.092 365.423,13.855 365.423,15.400 364.400 C 16.060 363.963,16.330 363.608,16.000 363.612 C 15.670 363.615,14.950 363.970,14.400 364.400 M11.100 366.157 C 10.077 366.933,10.245 367.253,11.400 366.727 C 11.950 366.477,12.400 366.120,12.400 365.936 C 12.400 365.458,11.911 365.541,11.100 366.157 M2.811 374.987 C 2.543 375.309,2.393 375.780,2.477 376.032 C 2.561 376.284,2.845 376.020,3.107 375.445 C 3.640 374.274,3.537 374.112,2.811 374.987 M0.472 378.347 C 0.137 378.559,-0.003 379.250,0.087 380.241 C 0.225 381.742,0.246 381.763,0.662 380.800 C 1.781 378.205,1.731 377.549,0.472 378.347 M185.400 388.800 C 185.065 389.342,185.517 390.000,186.224 390.000 C 186.541 390.000,186.800 389.640,186.800 389.200 C 186.800 388.372,185.835 388.096,185.400 388.800 M198.176 391.637 C 196.312 393.935,192.569 394.951,190.166 393.811 C 189.130 393.319,188.617 393.270,187.996 393.602 C 187.549 393.841,187.007 393.928,186.792 393.795 C 186.022 393.319,185.666 394.004,186.008 395.303 C 186.195 396.016,186.547 397.365,186.790 398.300 C 187.263 400.123,189.576 400.881,190.145 399.400 C 190.271 399.070,190.642 398.800,190.967 398.800 C 191.293 398.800,192.378 398.248,193.379 397.573 C 194.554 396.779,195.469 396.431,195.965 396.589 C 196.599 396.790,196.957 396.378,198.009 394.243 C 199.390 391.438,199.480 390.029,198.176 391.637 " stroke="none" fill="#201215" fill-rule="evenodd"></path><path id="path2" d="M0.000 189.214 L 0.000 378.428 0.819 377.990 C 1.270 377.749,1.809 377.103,2.017 376.555 C 2.402 375.543,4.182 373.158,6.000 371.220 C 6.550 370.633,7.281 369.804,7.624 369.377 C 8.595 368.168,11.306 365.955,12.277 365.578 C 13.692 365.028,17.687 362.146,19.156 360.614 C 19.902 359.836,20.687 359.200,20.901 359.200 C 21.115 359.200,21.855 358.735,22.545 358.167 C 24.376 356.659,28.538 354.303,32.200 352.700 C 36.450 350.840,42.885 348.400,43.539 348.400 C 43.827 348.400,46.163 347.284,48.731 345.921 C 61.109 339.348,65.618 337.092,68.118 336.218 C 69.613 335.695,71.413 334.847,72.118 334.332 C 74.151 332.848,82.459 329.144,89.000 326.804 C 90.100 326.411,94.240 324.417,98.200 322.374 C 102.160 320.330,106.232 318.245,107.248 317.739 C 108.264 317.233,109.404 316.348,109.782 315.772 C 110.159 315.196,111.467 314.267,112.687 313.709 C 115.443 312.447,121.212 307.556,121.944 305.861 C 122.244 305.167,122.913 303.694,123.431 302.587 C 124.293 300.745,124.366 300.110,124.287 295.165 L 124.200 289.757 125.518 287.238 C 127.009 284.389,127.018 285.077,125.356 275.200 C 124.304 268.949,120.980 252.164,120.404 250.200 C 120.211 249.540,119.661 246.840,119.182 244.200 C 117.922 237.260,117.038 234.554,115.004 231.412 C 114.012 229.879,113.200 228.415,113.200 228.159 C 113.200 227.225,110.037 224.800,108.819 224.800 C 106.625 224.800,103.531 223.923,102.463 222.998 C 96.069 217.463,91.447 212.871,90.615 211.229 C 90.091 210.196,89.397 209.130,89.073 208.861 C 88.749 208.592,88.362 207.703,88.212 206.886 C 88.063 206.069,87.715 205.040,87.440 204.600 C 83.645 198.538,83.126 182.692,86.407 173.046 C 87.700 169.243,87.786 170.318,85.541 162.200 C 85.115 160.660,84.591 157.420,84.377 155.000 C 84.162 152.580,83.607 149.160,83.142 147.400 C 81.938 142.844,81.771 134.269,82.795 129.644 C 83.333 127.215,83.430 126.005,83.148 125.262 C 82.680 124.033,83.021 121.717,84.003 119.454 C 84.398 118.544,84.847 116.990,85.001 116.000 C 86.027 109.424,91.151 99.052,99.229 87.200 C 100.054 85.990,102.274 83.428,104.164 81.506 C 106.054 79.584,107.600 77.845,107.600 77.641 C 107.600 77.437,108.905 75.940,110.500 74.314 C 112.095 72.688,113.951 70.737,114.625 69.979 C 116.590 67.768,121.586 63.470,123.201 62.600 C 125.674 61.268,127.899 59.680,128.506 58.813 C 129.254 57.746,133.115 54.994,134.400 54.613 C 134.950 54.450,137.200 53.430,139.400 52.347 C 141.776 51.176,145.186 49.918,147.800 49.247 C 150.220 48.625,152.740 47.918,153.400 47.675 C 158.986 45.619,170.154 45.130,175.856 46.691 C 177.647 47.182,180.167 47.694,181.456 47.830 C 182.745 47.966,185.240 48.496,187.000 49.007 C 188.760 49.519,191.460 50.236,193.000 50.601 C 194.540 50.967,196.430 51.655,197.200 52.131 C 197.970 52.607,199.500 53.414,200.600 53.925 C 201.700 54.435,202.960 55.182,203.400 55.583 C 203.840 55.985,204.766 56.433,205.459 56.579 C 206.151 56.726,207.011 57.171,207.371 57.568 C 207.731 57.965,209.181 58.782,210.594 59.382 C 212.832 60.334,213.224 60.662,213.642 61.937 C 214.285 63.900,216.364 66.377,218.396 67.600 C 219.309 68.150,220.809 69.211,221.728 69.958 C 222.648 70.705,224.030 71.581,224.800 71.905 C 227.315 72.962,232.917 79.109,234.912 83.000 C 235.475 84.100,236.392 85.607,236.947 86.349 C 237.503 87.091,238.076 88.261,238.221 88.949 C 238.366 89.637,238.876 90.650,239.355 91.200 C 240.715 92.762,242.800 95.885,242.800 96.360 C 242.800 96.596,244.405 98.428,246.367 100.432 C 248.329 102.435,250.134 104.557,250.378 105.148 C 251.210 107.156,251.957 107.324,260.600 107.446 C 272.385 107.613,281.463 109.417,283.863 112.070 C 284.260 112.508,285.127 113.096,285.792 113.377 C 288.735 114.622,289.969 116.911,289.245 119.785 C 289.000 120.758,288.800 122.445,288.800 123.533 C 288.800 125.656,287.799 131.684,287.227 133.000 C 287.036 133.440,286.578 134.880,286.209 136.200 C 283.413 146.195,276.005 156.537,269.426 159.630 C 266.113 161.187,265.632 162.883,267.005 168.155 C 267.683 170.759,267.823 179.657,267.221 181.954 C 267.013 182.749,266.452 185.380,265.976 187.800 C 265.500 190.220,264.889 192.470,264.620 192.800 C 264.350 193.130,263.900 194.480,263.619 195.800 C 263.338 197.120,262.950 198.500,262.758 198.867 C 262.369 199.606,261.513 202.636,260.403 207.200 C 260.001 208.850,259.318 211.460,258.884 213.000 C 258.450 214.540,257.807 216.829,257.456 218.087 C 257.104 219.345,256.363 221.491,255.808 222.856 C 255.254 224.221,254.800 225.497,254.800 225.691 C 254.800 226.190,250.931 233.932,249.878 235.540 C 248.010 238.392,244.775 241.431,241.938 243.000 C 235.543 246.537,235.593 246.389,236.426 259.400 C 236.964 267.798,237.279 269.132,239.200 271.152 C 240.241 272.246,240.860 273.381,241.209 274.838 C 243.158 282.960,248.488 291.153,252.500 292.194 C 255.388 292.942,257.794 294.441,258.595 295.991 C 259.601 297.936,262.522 299.741,270.400 303.287 C 271.390 303.732,273.280 304.607,274.600 305.230 C 275.920 305.854,278.260 306.888,279.800 307.527 C 282.657 308.714,284.531 309.712,289.462 312.673 C 290.994 313.594,292.719 314.465,293.295 314.609 C 293.870 314.754,294.638 315.200,295.000 315.600 C 295.541 316.197,301.922 319.505,309.200 322.961 C 309.970 323.327,311.050 323.865,311.600 324.158 C 313.420 325.128,316.170 326.357,318.400 327.199 C 319.610 327.656,322.490 329.010,324.800 330.209 C 327.110 331.408,329.630 332.679,330.400 333.034 C 331.170 333.388,332.340 334.069,333.000 334.547 C 333.660 335.024,335.370 335.945,336.800 336.594 C 338.230 337.242,339.850 338.069,340.400 338.430 C 341.762 339.323,347.124 341.658,350.934 343.015 C 355.724 344.722,362.884 349.590,366.766 353.780 C 369.886 357.147,372.950 360.008,374.100 360.628 C 374.705 360.954,375.200 361.396,375.200 361.610 C 375.200 361.825,375.431 362.000,375.714 362.000 C 376.830 362.000,382.458 369.441,384.045 373.014 C 384.439 373.902,384.892 374.758,385.051 374.918 C 386.115 375.982,389.870 390.512,390.474 395.900 L 390.933 400.000 395.466 400.000 L 400.000 400.000 400.000 200.000 L 400.000 0.000 200.000 0.000 L 0.000 0.000 0.000 189.214 " stroke="none" fill="#041b93" fill-rule="evenodd"></path><path id="path3" d="M224.000 169.488 C 223.230 169.585,221.610 169.940,220.400 170.278 C 219.190 170.616,217.894 170.910,217.519 170.932 C 217.145 170.954,216.920 171.053,217.020 171.153 C 217.308 171.441,215.932 172.800,215.354 172.800 C 212.577 172.800,202.863 183.823,204.339 185.299 C 204.808 185.768,213.700 184.317,215.800 183.428 C 219.487 181.868,219.464 181.870,228.533 182.125 C 237.916 182.388,240.517 182.874,242.561 184.743 C 243.404 185.513,247.728 186.479,248.687 186.111 C 249.409 185.834,249.372 181.841,248.642 181.235 C 248.335 180.980,247.969 180.193,247.829 179.486 C 247.540 178.025,247.006 177.243,245.670 176.323 C 245.158 175.970,244.438 175.087,244.070 174.359 C 243.608 173.447,242.996 172.933,242.102 172.707 C 241.388 172.526,240.542 171.978,240.221 171.489 C 239.097 169.775,237.124 169.070,234.324 169.381 C 231.171 169.731,227.254 169.799,226.200 169.523 C 225.760 169.407,224.770 169.392,224.000 169.488 M220.400 184.760 C 217.517 185.084,213.741 186.252,209.200 188.226 C 207.550 188.943,205.812 189.643,205.337 189.780 C 201.197 190.980,205.953 192.732,219.549 195.015 C 221.392 195.324,223.215 195.678,223.602 195.801 C 227.349 196.990,242.377 196.557,245.870 195.159 C 248.621 194.059,248.699 193.587,246.475 191.520 C 241.724 187.102,238.478 185.693,231.880 185.184 C 229.416 184.994,226.410 184.756,225.200 184.654 C 223.990 184.552,221.830 184.600,220.400 184.760 M239.628 278.700 C 239.613 279.415,239.780 280.000,240.000 280.000 C 240.475 280.000,240.475 279.305,240.000 278.200 C 239.712 277.530,239.652 277.611,239.628 278.700 M188.175 313.641 C 187.989 313.942,188.045 314.020,188.323 313.848 C 188.584 313.686,189.214 314.242,189.838 315.186 C 191.247 317.315,191.519 317.259,190.234 315.104 C 189.130 313.253,188.633 312.900,188.175 313.641 M185.663 314.834 C 184.928 314.988,184.123 315.317,183.875 315.565 C 183.542 315.898,183.761 315.948,184.723 315.755 C 187.100 315.280,187.956 316.633,186.085 317.908 C 183.313 319.798,179.943 318.888,181.817 316.756 C 182.595 315.870,182.595 315.866,181.800 316.181 C 177.563 317.857,176.973 317.997,175.837 317.602 C 174.726 317.216,174.704 317.231,175.337 317.930 C 175.702 318.333,176.014 319.009,176.032 319.431 C 176.049 319.854,176.154 319.975,176.265 319.700 C 176.608 318.850,177.200 319.149,177.200 320.172 C 177.200 320.862,177.461 321.195,178.100 321.318 C 178.744 321.442,178.627 321.507,177.687 321.546 C 175.716 321.627,173.467 322.675,173.739 323.385 C 173.863 323.709,173.793 324.081,173.583 324.211 C 173.372 324.341,173.200 324.781,173.200 325.189 C 173.200 325.597,172.579 326.874,171.819 328.027 C 170.729 329.682,170.523 330.282,170.839 330.873 C 171.303 331.739,172.000 331.482,172.000 330.444 C 172.000 330.054,172.449 328.850,172.998 327.768 C 173.547 326.686,173.997 325.496,173.998 325.124 C 173.999 324.752,174.172 324.341,174.383 324.211 C 174.593 324.081,174.670 323.727,174.554 323.426 C 174.297 322.755,179.317 321.496,180.753 321.872 C 182.377 322.297,189.279 320.844,189.823 319.962 C 189.937 319.779,189.399 319.892,188.628 320.214 C 187.857 320.536,186.365 320.779,185.313 320.754 C 184.261 320.728,183.715 320.625,184.100 320.524 C 184.485 320.424,184.800 320.180,184.800 319.984 C 184.800 319.787,185.788 318.880,186.996 317.968 C 188.965 316.481,189.637 315.193,188.144 315.766 C 187.815 315.892,187.447 315.680,187.285 315.270 C 187.056 314.694,186.738 314.609,185.663 314.834 M169.954 316.717 C 169.529 317.280,169.531 317.318,169.966 316.933 C 170.277 316.658,171.091 316.558,171.947 316.689 C 173.699 316.959,173.523 316.614,171.735 316.274 C 170.807 316.098,170.332 316.216,169.954 316.717 M169.029 318.629 C 168.881 319.215,168.838 319.772,168.932 319.866 C 169.027 319.960,169.224 319.558,169.371 318.971 C 169.519 318.385,169.562 317.828,169.468 317.734 C 169.373 317.640,169.176 318.042,169.029 318.629 M182.500 320.261 C 183.371 320.550,183.401 321.037,182.567 321.357 C 181.422 321.797,180.827 321.613,180.175 320.618 C 179.314 319.304,179.789 318.541,180.938 319.391 C 181.412 319.742,182.115 320.134,182.500 320.261 M192.800 319.334 C 192.800 319.700,192.980 320.000,193.200 320.000 C 193.420 320.000,193.600 320.270,193.600 320.600 C 193.600 321.435,193.254 321.350,192.375 320.300 C 191.670 319.458,191.672 319.502,192.411 320.985 C 192.845 321.856,193.200 322.787,193.200 323.054 C 193.200 323.320,193.731 324.069,194.380 324.718 C 195.253 325.591,195.525 326.198,195.426 327.049 C 195.352 327.682,195.271 328.411,195.246 328.669 C 194.972 331.487,188.077 328.806,187.946 325.830 C 187.904 324.888,187.850 324.811,187.718 325.500 C 187.621 326.004,187.248 326.403,186.872 326.406 C 186.366 326.411,186.328 326.494,186.719 326.741 C 187.505 327.240,186.643 327.783,183.600 328.710 C 181.005 329.499,181.000 329.504,180.938 331.050 L 180.875 332.600 181.138 331.200 C 181.395 329.826,181.455 329.789,184.318 329.195 C 185.922 328.863,187.388 328.343,187.575 328.041 C 187.838 327.614,188.177 327.785,189.090 328.807 C 190.870 330.800,194.033 330.987,195.945 329.211 C 197.198 328.049,197.246 327.914,196.645 327.250 C 196.290 326.858,196.000 326.272,196.000 325.949 C 196.000 325.625,195.840 325.189,195.645 324.980 C 194.886 324.168,194.618 322.551,195.342 323.152 C 196.382 324.015,196.123 323.412,194.400 320.951 C 193.520 319.695,192.800 318.967,192.800 319.334 M184.841 323.834 C 183.225 324.982,184.073 325.142,185.786 324.013 C 186.672 323.429,187.050 323.354,187.280 323.716 C 187.491 324.048,187.590 323.981,187.594 323.500 C 187.602 322.532,186.482 322.668,184.841 323.834 M181.110 325.023 C 180.668 325.465,181.308 326.799,181.947 326.768 C 182.361 326.748,182.417 326.663,182.100 326.535 C 181.362 326.237,181.493 325.287,182.300 325.076 C 182.867 324.927,182.842 324.884,182.167 324.846 C 181.708 324.821,181.233 324.900,181.110 325.023 M197.554 326.336 C 197.999 326.960,198.683 327.725,199.074 328.036 C 199.465 328.346,199.188 327.835,198.459 326.900 C 196.974 324.996,196.302 324.577,197.554 326.336 M166.846 327.667 C 166.821 328.034,166.696 328.664,166.570 329.067 C 166.352 329.762,166.363 329.763,166.797 329.087 C 167.048 328.696,167.173 328.066,167.073 327.687 C 166.911 327.068,166.888 327.066,166.846 327.667 M201.799 331.800 C 203.204 334.166,207.406 339.967,207.727 339.983 C 208.083 340.001,206.676 337.888,205.476 336.600 C 205.066 336.160,204.389 335.170,203.973 334.400 C 203.556 333.630,202.736 332.460,202.151 331.800 L 201.086 330.600 201.799 331.800 M184.848 332.001 C 183.273 332.373,182.891 332.854,182.549 334.900 C 182.269 336.573,181.738 336.876,181.500 335.500 C 181.415 335.005,181.347 335.865,181.351 337.411 C 181.359 340.961,181.197 341.200,178.776 341.200 C 176.386 341.200,176.128 341.904,178.455 342.077 C 179.882 342.183,180.213 342.393,180.855 343.594 C 181.341 344.502,181.600 344.731,181.600 344.251 C 181.600 343.744,181.797 343.590,182.233 343.757 C 182.581 343.891,182.939 344.000,183.029 344.000 C 183.119 344.000,182.892 344.351,182.525 344.780 C 182.158 345.208,181.681 345.450,181.466 345.317 C 181.227 345.170,181.175 345.451,181.332 346.037 C 181.473 346.567,181.592 347.866,181.595 348.924 C 181.598 349.982,181.758 350.749,181.952 350.630 C 182.145 350.510,182.215 349.630,182.107 348.673 C 181.880 346.656,182.826 344.407,183.910 344.388 C 184.557 344.376,184.556 344.350,183.900 343.968 C 183.515 343.744,183.200 343.184,183.200 342.724 C 183.200 342.264,183.515 341.647,183.900 341.352 C 184.394 340.973,184.465 340.725,184.141 340.508 C 182.560 339.447,182.641 333.985,184.254 332.928 C 185.832 331.894,191.288 333.588,191.825 335.279 C 191.951 335.676,192.411 336.192,192.846 336.425 C 193.390 336.715,193.561 337.092,193.392 337.624 C 193.122 338.476,193.934 338.706,194.657 337.983 C 194.946 337.694,195.233 337.758,195.594 338.193 C 195.880 338.537,196.043 338.876,195.957 338.945 C 194.887 339.800,192.016 341.555,191.398 341.731 C 190.959 341.856,191.590 341.857,192.800 341.734 C 194.010 341.611,195.180 341.371,195.400 341.201 C 197.212 339.801,199.092 340.477,200.025 342.864 C 200.492 344.059,200.990 344.656,201.649 344.810 C 202.226 344.945,202.649 345.373,202.725 345.897 C 202.794 346.373,203.200 346.873,203.627 347.008 C 204.053 347.144,204.845 348.187,205.386 349.327 C 205.927 350.467,206.737 351.627,207.185 351.903 C 207.633 352.180,208.000 352.648,208.000 352.944 C 208.000 353.610,211.943 357.263,213.358 357.908 C 213.931 358.169,214.400 358.567,214.400 358.791 C 214.400 359.016,214.752 359.200,215.181 359.200 C 215.611 359.200,216.417 359.407,216.973 359.660 C 217.847 360.059,218.199 359.971,219.588 359.008 C 220.910 358.092,221.299 357.984,221.796 358.397 C 222.212 358.742,222.400 358.758,222.400 358.449 C 222.400 358.202,222.242 358.000,222.049 358.000 C 221.855 358.000,221.473 357.460,221.200 356.800 C 220.719 355.639,219.806 355.030,220.240 356.160 C 220.358 356.467,220.271 356.833,220.046 356.972 C 219.425 357.356,215.600 357.510,215.600 357.152 C 215.600 356.979,214.835 356.499,213.900 356.085 C 212.860 355.625,211.760 354.697,211.066 353.696 C 210.443 352.796,209.678 351.962,209.366 351.842 C 209.055 351.723,208.800 351.394,208.800 351.113 C 208.800 350.831,208.175 349.899,207.412 349.041 C 206.649 348.184,206.115 347.338,206.225 347.160 C 206.481 346.745,205.167 345.200,204.558 345.200 C 204.302 345.200,204.000 344.842,203.885 344.403 C 203.770 343.965,203.124 343.290,202.449 342.903 C 201.484 342.351,201.166 341.841,200.970 340.532 C 200.721 338.877,200.707 338.865,199.259 339.060 C 198.014 339.228,197.892 339.179,198.425 338.728 C 198.768 338.438,199.172 337.874,199.322 337.475 C 199.472 337.076,199.763 336.854,199.970 336.981 C 200.383 337.237,201.009 336.475,200.667 336.133 C 200.549 336.016,200.230 336.058,199.957 336.226 C 198.815 336.932,197.169 336.603,196.323 335.500 C 195.860 334.895,195.169 334.400,194.789 334.400 C 194.409 334.400,193.890 334.149,193.635 333.843 C 193.381 333.536,192.007 333.065,190.582 332.797 C 189.156 332.528,187.892 332.148,187.771 331.954 C 187.517 331.543,186.736 331.555,184.848 332.001 M170.464 333.019 C 169.884 334.293,169.872 335.091,170.432 335.277 C 170.730 335.377,170.704 335.773,170.348 336.555 C 169.891 337.557,169.919 337.752,170.594 338.245 C 171.186 338.678,171.250 338.910,170.879 339.281 C 170.188 339.972,170.290 340.717,171.100 340.898 C 171.485 340.985,170.675 341.195,169.300 341.367 C 167.648 341.573,166.800 341.858,166.800 342.209 C 166.800 342.500,166.381 343.247,165.868 343.869 C 165.356 344.491,164.817 345.326,164.671 345.725 C 164.525 346.124,164.240 346.348,164.037 346.223 C 163.453 345.862,163.285 346.893,163.722 348.161 C 164.032 349.064,163.990 349.420,163.532 349.761 C 163.208 350.003,162.481 351.190,161.917 352.400 C 158.885 358.898,158.298 360.215,158.231 360.667 C 158.191 360.939,157.874 361.485,157.527 361.881 C 156.861 362.639,156.220 364.249,156.050 365.595 C 155.996 366.023,152.853 368.154,152.200 368.205 C 151.980 368.222,151.848 368.461,151.906 368.735 C 151.986 369.115,151.818 369.131,151.197 368.799 C 150.750 368.559,150.181 368.488,149.934 368.641 C 149.628 368.830,149.549 368.580,149.687 367.859 C 149.966 366.398,149.805 366.524,148.836 368.526 C 147.741 370.788,147.775 371.055,149.200 371.340 C 151.388 371.778,152.625 371.226,154.607 368.930 C 155.645 367.728,156.878 366.597,157.347 366.417 C 157.971 366.177,158.514 365.155,159.371 362.613 C 160.014 360.701,160.963 358.302,161.479 357.283 C 161.996 356.263,162.529 354.735,162.664 353.887 C 162.824 352.889,163.244 352.128,163.855 351.727 C 164.423 351.355,164.800 350.717,164.800 350.128 C 164.800 349.589,165.013 348.754,165.272 348.274 C 165.532 347.793,165.801 346.902,165.870 346.294 C 166.129 343.998,167.088 342.400,168.206 342.400 C 168.782 342.400,169.619 342.204,170.067 341.964 C 170.515 341.724,171.628 341.463,172.541 341.384 C 174.722 341.195,174.773 341.169,173.600 340.841 C 172.780 340.612,172.600 340.313,172.600 339.181 C 172.600 338.088,172.454 337.824,171.900 337.918 C 171.149 338.044,171.106 337.844,171.083 334.100 C 171.068 331.669,171.074 331.680,170.464 333.019 M182.787 340.500 C 182.768 342.485,181.746 343.664,180.961 342.605 C 180.419 341.873,180.453 341.782,181.389 341.470 C 181.948 341.284,182.298 340.958,182.167 340.747 C 181.916 340.340,182.226 339.200,182.587 339.200 C 182.704 339.200,182.794 339.785,182.787 340.500 M188.141 339.997 C 187.178 340.386,186.525 341.200,187.176 341.200 C 187.409 341.200,187.600 341.020,187.600 340.800 C 187.600 340.580,188.151 340.400,188.824 340.400 C 189.537 340.400,189.944 340.233,189.800 340.000 C 189.511 339.532,189.296 339.531,188.141 339.997 M162.065 341.017 C 161.395 342.488,161.523 342.802,162.247 341.465 C 162.586 340.840,162.788 340.254,162.696 340.163 C 162.605 340.071,162.321 340.456,162.065 341.017 M210.132 343.148 C 213.156 347.061,217.344 351.934,217.715 351.970 C 217.888 351.986,216.898 350.671,215.515 349.048 C 211.880 344.780,210.293 342.792,209.506 341.521 C 209.124 340.904,208.631 340.400,208.411 340.400 C 208.190 340.400,208.965 341.636,210.132 343.148 M237.893 341.708 C 237.248 342.503,236.956 343.600,237.390 343.600 C 237.648 343.600,238.894 341.160,238.723 340.990 C 238.648 340.915,238.275 341.238,237.893 341.708 M187.867 342.971 C 187.687 343.440,187.858 343.468,188.824 343.132 C 190.250 342.635,190.320 342.400,189.043 342.400 C 188.516 342.400,187.987 342.657,187.867 342.971 M234.142 346.660 C 232.856 348.387,231.712 349.890,231.598 350.000 C 230.986 350.595,229.235 353.602,229.494 353.612 C 229.662 353.619,229.481 353.810,229.092 354.037 C 228.702 354.264,228.486 354.616,228.612 354.820 C 228.738 355.024,228.607 355.110,228.321 355.011 C 227.884 354.860,225.398 357.601,224.280 359.466 C 223.800 360.267,224.533 360.108,225.508 359.200 C 225.980 358.760,226.599 358.394,226.883 358.387 C 227.700 358.367,228.904 357.311,228.439 357.024 C 227.920 356.703,229.372 355.200,230.200 355.200 C 230.791 355.200,230.957 354.780,230.831 353.600 C 230.775 353.075,230.816 353.074,231.162 353.588 C 231.379 353.912,231.623 354.092,231.704 353.988 C 233.143 352.148,233.600 351.363,233.600 350.734 C 233.600 350.317,234.308 349.080,235.174 347.985 C 236.949 345.740,237.466 344.506,236.880 343.920 C 236.613 343.653,235.700 344.567,234.142 346.660 M234.400 348.151 C 234.400 348.234,234.130 348.526,233.800 348.800 C 233.309 349.208,233.200 349.180,233.200 348.649 C 233.200 348.292,233.470 348.000,233.800 348.000 C 234.130 348.000,234.400 348.068,234.400 348.151 M157.878 349.805 C 157.512 350.572,157.295 351.200,157.396 351.200 C 157.670 351.200,158.884 348.751,158.701 348.568 C 158.614 348.481,158.244 349.038,157.878 349.805 M155.478 354.605 C 155.112 355.372,154.895 356.000,154.996 356.000 C 155.270 356.000,156.484 353.551,156.301 353.368 C 156.214 353.281,155.844 353.838,155.478 354.605 M131.525 356.900 C 132.708 359.028,133.862 361.225,134.468 362.500 C 134.650 362.885,134.968 363.515,135.173 363.900 C 135.378 364.285,135.873 365.360,136.273 366.290 C 136.673 367.219,137.225 367.984,137.500 367.990 C 137.775 367.995,138.006 368.225,138.013 368.500 C 138.033 369.247,139.523 370.895,139.944 370.635 C 140.471 370.309,141.324 371.476,140.973 372.044 C 140.780 372.355,140.846 372.419,141.160 372.225 C 141.452 372.044,142.030 372.375,142.621 373.063 C 144.633 375.402,143.488 373.025,140.177 367.988 C 138.295 365.124,136.580 362.889,136.367 363.020 C 136.154 363.152,136.006 363.111,136.037 362.930 C 136.166 362.190,135.943 361.736,134.794 360.400 C 134.131 359.630,133.014 358.055,132.310 356.900 C 131.607 355.745,130.880 354.800,130.695 354.800 C 130.510 354.800,130.883 355.745,131.525 356.900 M182.900 356.490 C 181.338 357.241,181.692 358.800,183.425 358.800 C 184.786 358.800,184.845 358.742,184.725 357.531 C 184.583 356.093,184.191 355.869,182.900 356.490 M184.400 357.400 C 184.400 358.200,184.200 358.400,183.400 358.400 C 182.237 358.400,182.096 357.719,183.100 356.957 C 184.120 356.183,184.400 356.278,184.400 357.400 M196.869 357.317 C 196.502 357.759,196.490 357.963,196.825 358.075 C 197.745 358.382,196.350 361.477,194.346 363.579 C 193.276 364.701,192.400 365.750,192.400 365.909 C 192.400 367.183,189.633 368.335,187.355 368.010 C 185.464 367.741,184.909 367.791,184.535 368.265 C 184.132 368.778,184.013 368.760,183.627 368.128 C 183.276 367.552,183.239 367.734,183.449 369.000 C 183.975 372.174,184.191 372.383,185.195 370.690 C 186.485 368.515,187.334 368.170,188.946 369.167 C 190.305 370.006,191.200 369.740,191.200 368.496 C 191.200 368.197,192.536 366.620,194.169 364.992 C 196.960 362.210,197.155 361.901,197.412 359.844 C 197.741 357.211,197.580 356.461,196.869 357.317 M194.800 360.045 C 193.025 362.095,191.244 362.403,187.823 361.255 C 185.886 360.604,185.368 360.554,185.023 360.980 C 184.790 361.268,184.084 361.624,183.453 361.771 C 181.396 362.251,182.624 362.429,184.788 361.965 C 186.332 361.634,187.152 361.632,187.865 361.957 C 190.796 363.292,194.460 362.078,195.960 359.275 C 196.614 358.052,196.407 358.190,194.800 360.045 M150.581 364.437 C 150.229 365.118,150.012 365.745,150.099 365.832 C 150.186 365.919,150.556 365.362,150.922 364.595 C 151.744 362.870,151.459 362.738,150.581 364.437 M186.800 389.580 C 186.800 389.896,186.493 390.013,186.000 389.884 C 185.480 389.748,185.200 389.872,185.200 390.237 C 185.200 390.952,185.641 390.951,186.623 390.233 C 187.050 389.921,187.264 389.531,187.099 389.366 C 186.935 389.201,186.800 389.298,186.800 389.580 M198.195 390.890 C 197.674 392.066,195.340 393.600,194.074 393.600 C 193.520 393.600,193.178 393.712,193.315 393.848 C 193.929 394.462,196.423 393.483,197.766 392.100 C 199.567 390.246,199.633 391.006,197.961 394.351 C 196.968 396.340,196.577 396.783,195.985 396.595 C 195.536 396.453,194.571 396.800,193.523 397.480 C 192.575 398.096,191.453 398.695,191.030 398.811 C 189.927 399.113,189.754 400.000,190.797 400.000 C 191.273 400.000,192.180 399.481,192.814 398.848 C 193.448 398.214,194.586 397.579,195.344 397.437 C 197.760 396.984,200.453 392.882,199.766 390.700 C 199.461 389.729,198.667 389.825,198.195 390.890 M187.600 392.718 C 187.600 393.166,187.375 393.624,187.100 393.735 C 186.825 393.846,186.791 393.951,187.024 393.968 C 188.072 394.047,188.907 392.987,188.236 392.430 C 187.690 391.977,187.600 392.017,187.600 392.718 M190.741 394.101 C 190.943 394.303,191.533 394.401,192.054 394.319 C 192.855 394.193,192.798 394.137,191.687 393.952 C 190.893 393.821,190.519 393.879,190.741 394.101 " stroke="none" fill="#b6152f" fill-rule="evenodd"></path><path id="path4" d="M187.783 71.100 C 187.904 71.414,187.619 71.600,187.016 71.600 C 186.489 71.600,185.776 71.882,185.432 72.226 C 185.087 72.570,184.490 72.803,184.103 72.744 C 183.716 72.685,183.005 72.854,182.521 73.121 C 182.038 73.387,181.228 73.592,180.721 73.575 C 176.936 73.450,176.032 73.365,175.775 73.107 C 175.380 72.714,173.951 74.398,174.258 74.894 C 174.405 75.132,174.598 75.139,174.750 74.914 C 175.268 74.142,176.339 74.069,176.966 74.762 C 177.556 75.414,177.544 75.526,176.816 76.186 C 176.104 76.830,176.084 76.984,176.613 77.740 C 177.540 79.064,177.383 80.132,176.300 79.862 C 174.819 79.493,173.318 81.326,174.023 82.643 C 174.482 83.501,174.477 83.705,173.987 84.008 C 173.508 84.304,173.494 84.584,173.902 85.665 C 174.216 86.496,174.255 87.105,174.010 87.350 C 173.765 87.595,173.534 87.492,173.370 87.067 C 172.893 85.824,170.400 86.375,170.400 87.723 C 170.400 88.374,170.507 88.453,170.880 88.080 C 171.595 87.365,172.280 87.498,172.516 88.400 C 172.641 88.879,173.062 89.200,173.563 89.200 C 174.023 89.200,174.400 89.380,174.400 89.600 C 174.400 89.820,174.670 90.000,175.000 90.000 C 175.330 90.000,175.600 89.820,175.600 89.600 C 175.600 88.852,176.306 89.196,176.530 90.053 C 176.701 90.708,176.962 90.851,177.656 90.670 C 178.152 90.540,178.781 90.618,179.052 90.843 C 179.595 91.294,182.160 91.643,185.674 91.745 C 187.326 91.792,188.278 92.055,189.157 92.705 C 190.712 93.855,190.800 93.838,190.800 92.386 L 190.800 91.172 192.056 92.603 L 193.313 94.034 194.218 93.183 L 195.124 92.332 195.402 93.205 C 195.611 93.865,195.913 94.033,196.639 93.895 C 197.168 93.794,197.600 93.864,197.600 94.050 C 197.600 94.237,198.260 94.665,199.066 95.002 C 200.459 95.584,200.494 95.644,199.766 96.188 C 199.040 96.732,199.069 96.776,200.314 97.034 C 201.037 97.183,201.808 97.642,202.028 98.053 C 202.301 98.563,202.870 98.800,203.824 98.800 C 204.931 98.800,205.296 98.999,205.587 99.765 C 205.923 100.649,206.178 100.732,208.629 100.751 C 210.101 100.762,211.411 100.877,211.541 101.007 C 212.025 101.492,210.554 101.978,209.300 101.749 C 208.470 101.597,208.000 101.672,208.000 101.955 C 208.000 102.200,208.180 102.400,208.400 102.400 C 208.620 102.400,208.800 102.651,208.800 102.957 C 208.800 104.395,213.719 103.516,214.203 101.992 C 214.341 101.556,214.690 101.200,214.978 101.200 C 215.266 101.200,215.717 100.941,215.980 100.624 C 216.243 100.307,216.939 99.992,217.526 99.924 C 218.220 99.843,218.646 99.520,218.743 99.000 C 218.952 97.883,219.667 97.538,220.216 98.289 C 220.574 98.779,220.748 98.808,220.990 98.416 C 221.166 98.131,221.091 97.780,220.818 97.611 C 220.458 97.388,220.488 97.252,220.934 97.081 C 221.289 96.944,221.766 97.196,222.097 97.696 C 222.796 98.748,225.481 97.922,226.254 96.417 C 226.503 95.931,226.908 95.332,227.154 95.086 C 227.860 94.380,227.674 93.144,226.828 92.923 C 226.022 92.712,225.337 91.600,226.013 91.600 C 226.226 91.600,226.400 91.024,226.400 90.320 C 226.400 89.324,226.293 89.147,225.920 89.520 C 225.256 90.184,224.400 90.122,224.400 89.410 C 224.400 88.231,223.031 86.593,222.152 86.720 C 221.551 86.806,221.231 86.574,221.052 85.921 C 220.860 85.217,220.717 85.128,220.450 85.543 C 219.984 86.266,218.512 85.782,218.201 84.804 C 218.061 84.361,217.515 83.998,216.881 83.925 C 215.982 83.821,215.793 83.596,215.760 82.586 C 215.708 81.018,214.882 79.483,214.227 79.734 C 213.530 80.002,211.393 78.575,211.962 78.223 C 212.203 78.075,212.400 77.588,212.400 77.143 C 212.400 76.071,211.438 76.402,211.272 77.531 C 211.094 78.741,210.485 78.615,209.681 77.203 C 209.246 76.437,208.679 76.004,208.109 76.003 C 207.607 76.001,206.938 75.572,206.575 75.018 C 206.030 74.186,205.816 74.108,205.174 74.509 C 204.562 74.891,204.173 74.839,203.155 74.237 C 201.999 73.554,201.862 73.546,201.526 74.146 C 201.325 74.506,200.953 74.800,200.700 74.800 C 200.364 74.800,200.370 74.670,200.720 74.320 C 201.576 73.464,201.293 72.689,200.200 72.898 C 199.567 73.019,199.200 72.907,199.200 72.591 C 199.200 72.157,198.046 71.622,197.075 71.605 C 196.896 71.602,196.806 72.005,196.875 72.500 C 197.036 73.661,194.931 73.564,194.095 72.372 C 193.439 71.436,192.744 71.402,191.144 72.229 C 190.475 72.575,189.629 72.741,189.264 72.599 C 188.743 72.396,188.880 72.221,189.900 71.789 C 191.704 71.025,191.524 70.600,189.396 70.600 C 188.116 70.600,187.647 70.746,187.783 71.100 M178.660 71.787 C 178.536 72.110,178.591 72.471,178.781 72.588 C 179.326 72.925,180.400 72.373,180.400 71.757 C 180.400 71.015,178.947 71.040,178.660 71.787 M171.700 74.287 C 170.893 74.577,171.127 75.600,172.000 75.600 C 172.440 75.600,172.800 75.341,172.800 75.024 C 172.800 74.328,172.377 74.045,171.700 74.287 M179.332 78.233 C 179.056 78.951,178.000 78.978,178.000 78.267 C 178.000 77.523,178.383 77.219,179.014 77.461 C 179.308 77.574,179.452 77.921,179.332 78.233 M148.000 90.609 C 148.000 91.030,147.547 91.200,146.424 91.200 C 145.557 91.200,144.736 91.380,144.600 91.600 C 144.464 91.820,144.543 92.000,144.776 92.000 C 145.009 92.000,145.200 92.180,145.200 92.400 C 145.200 92.620,144.592 92.800,143.849 92.800 C 140.179 92.800,141.198 94.683,145.063 95.042 C 149.274 95.433,152.655 94.415,150.300 93.465 C 150.020 93.352,150.131 93.249,150.553 93.232 C 151.323 93.199,151.348 94.794,150.612 97.000 C 150.430 97.546,150.540 97.482,150.958 96.800 C 151.671 95.638,151.782 93.487,151.186 92.374 C 150.606 91.289,153.374 91.147,158.600 91.992 C 169.211 93.709,168.771 93.666,169.618 93.072 C 170.748 92.281,169.009 91.863,164.200 91.771 C 157.880 91.650,154.749 91.183,156.200 90.577 C 157.260 90.134,156.853 90.073,152.700 90.047 C 148.808 90.023,148.000 90.120,148.000 90.609 M161.520 91.280 C 161.893 91.653,162.107 91.653,162.480 91.280 C 162.853 90.907,162.747 90.800,162.000 90.800 C 161.253 90.800,161.147 90.907,161.520 91.280 M225.200 91.400 C 225.200 91.730,224.930 92.000,224.600 92.000 C 224.270 92.000,224.000 91.730,224.000 91.400 C 224.000 91.070,224.270 90.800,224.600 90.800 C 224.930 90.800,225.200 91.070,225.200 91.400 M167.400 92.400 C 167.545 92.634,167.130 92.800,166.400 92.800 C 165.670 92.800,165.255 92.634,165.400 92.400 C 165.536 92.180,165.986 92.000,166.400 92.000 C 166.814 92.000,167.264 92.180,167.400 92.400 M170.600 93.582 C 169.883 93.875,169.924 93.937,171.000 94.181 C 171.660 94.331,173.910 94.962,176.000 95.582 C 178.090 96.202,180.880 97.014,182.200 97.387 C 184.265 97.969,189.294 99.897,193.398 101.679 C 203.000 105.850,211.851 111.898,213.481 115.400 L 214.040 116.600 213.789 115.410 C 213.503 114.048,210.397 110.839,207.400 108.808 C 206.300 108.063,205.310 107.351,205.200 107.226 C 205.090 107.101,204.505 106.744,203.900 106.432 C 203.295 106.120,202.800 105.715,202.800 105.532 C 202.800 105.350,202.513 105.200,202.162 105.200 C 201.811 105.200,201.046 104.876,200.462 104.480 C 199.377 103.745,195.238 101.696,192.900 100.738 C 192.185 100.445,191.600 100.069,191.600 99.902 C 191.600 99.736,191.236 99.600,190.792 99.600 C 190.348 99.600,188.877 99.150,187.523 98.600 C 186.170 98.050,184.733 97.600,184.331 97.600 C 183.396 97.600,183.368 96.817,184.300 96.748 C 184.685 96.719,183.932 96.559,182.628 96.393 C 181.125 96.201,180.072 95.840,179.756 95.407 C 179.383 94.897,178.946 94.792,178.028 94.994 C 177.080 95.202,176.740 95.110,176.541 94.590 C 176.336 94.057,175.965 93.967,174.765 94.159 C 173.246 94.402,172.168 93.823,173.495 93.477 C 173.883 93.376,173.570 93.285,172.800 93.275 C 172.030 93.264,171.040 93.403,170.600 93.582 M143.116 97.018 C 142.885 97.248,143.054 97.998,144.462 103.000 C 146.985 111.960,153.691 125.031,159.361 132.037 C 159.822 132.608,160.736 133.778,161.391 134.637 C 163.089 136.864,168.381 142.324,169.800 143.314 C 170.460 143.775,169.287 142.452,167.194 140.376 C 159.101 132.347,150.603 119.225,147.654 110.200 C 147.222 108.880,146.390 106.660,145.805 105.267 C 143.356 99.434,143.698 98.024,147.580 97.950 L 150.200 97.900 148.087 97.592 C 146.926 97.423,145.383 97.173,144.659 97.037 C 143.935 96.902,143.241 96.893,143.116 97.018 M257.886 107.516 C 255.770 107.586,254.467 107.784,254.610 108.016 C 254.740 108.227,254.342 108.413,253.724 108.428 C 253.106 108.444,252.240 108.626,251.800 108.833 C 251.278 109.079,252.701 109.130,255.892 108.981 C 263.870 108.609,275.389 110.066,279.900 112.019 C 281.923 112.895,281.963 113.103,280.400 114.600 C 278.162 116.744,279.106 118.055,283.563 118.992 C 287.334 119.786,287.200 119.660,287.200 122.379 C 287.200 129.759,282.697 142.959,277.942 149.522 C 268.964 161.913,258.439 162.769,247.065 152.035 C 245.063 150.146,243.996 149.306,244.693 150.168 C 247.554 153.704,252.977 157.759,256.600 159.072 C 259.043 159.957,266.843 160.118,267.660 159.300 C 267.935 159.025,268.404 158.800,268.702 158.800 C 269.761 158.800,273.943 155.594,275.857 153.315 C 276.925 152.042,277.902 150.910,278.026 150.800 C 279.414 149.574,282.882 143.105,284.662 138.422 C 287.279 131.536,288.025 127.875,288.163 121.236 C 288.205 119.214,288.212 119.217,283.273 118.401 C 279.432 117.767,277.904 114.800,281.417 114.800 C 283.168 114.800,283.246 111.898,281.506 111.476 C 281.008 111.355,279.880 111.061,279.000 110.822 C 273.974 109.460,270.519 108.862,265.805 108.539 C 263.828 108.404,262.028 108.092,261.805 107.847 C 261.549 107.564,260.107 107.443,257.886 107.516 M236.300 112.638 C 235.255 113.163,234.400 113.669,234.400 113.764 C 234.400 114.015,237.665 112.736,238.589 112.123 C 239.911 111.247,238.390 111.589,236.300 112.638 M215.512 114.622 C 214.229 115.905,216.163 116.757,220.754 116.931 C 223.309 117.027,225.760 117.172,226.200 117.253 C 227.701 117.529,227.404 116.727,225.800 116.173 C 222.841 115.151,216.012 114.121,215.512 114.622 M231.707 115.700 C 231.093 116.485,230.397 118.816,230.434 119.960 C 230.455 120.605,230.662 120.200,230.978 118.893 C 231.259 117.734,231.812 116.429,232.206 115.993 C 232.601 115.557,232.738 115.200,232.511 115.200 C 232.284 115.200,231.922 115.425,231.707 115.700 M214.768 119.900 C 214.959 121.281,214.987 121.309,215.119 120.251 C 215.198 119.619,215.105 118.945,214.912 118.752 C 214.710 118.550,214.649 119.040,214.768 119.900 M230.241 122.800 C 230.745 126.128,235.348 137.600,236.180 137.600 C 236.306 137.600,235.713 136.205,234.862 134.500 C 233.501 131.771,231.746 127.118,230.449 122.800 L 230.029 121.400 230.241 122.800 M208.529 136.500 C 207.473 137.673,206.930 138.614,207.520 138.250 C 208.000 137.953,209.756 135.600,209.497 135.600 C 209.410 135.600,208.975 136.005,208.529 136.500 M237.200 139.600 C 237.649 140.480,238.106 141.200,238.216 141.200 C 238.326 141.200,238.049 140.480,237.600 139.600 C 237.151 138.720,236.694 138.000,236.584 138.000 C 236.474 138.000,236.751 138.720,237.200 139.600 M205.381 140.500 L 203.800 142.200 205.500 140.619 C 207.081 139.148,207.384 138.800,207.081 138.800 C 207.016 138.800,206.251 139.565,205.381 140.500 M218.415 140.982 C 218.076 141.390,217.483 141.594,216.937 141.490 C 216.312 141.371,215.802 141.612,215.318 142.258 C 214.929 142.776,214.328 143.200,213.984 143.200 C 213.639 143.200,212.746 143.830,212.000 144.600 C 211.254 145.369,210.454 145.978,210.222 145.952 C 207.877 145.691,205.364 149.443,206.984 150.787 C 208.424 151.982,210.556 151.753,214.631 149.966 C 218.441 148.295,218.730 148.233,223.755 148.020 L 228.945 147.800 229.241 146.689 C 230.180 143.163,220.737 138.184,218.415 140.982 M200.752 144.529 C 199.516 145.448,198.166 146.432,197.752 146.715 C 197.338 146.998,197.787 146.818,198.748 146.315 C 200.274 145.516,203.746 142.811,203.200 142.846 C 203.090 142.853,201.988 143.610,200.752 144.529 M239.523 143.400 C 239.773 143.840,240.357 144.650,240.822 145.200 L 241.667 146.200 240.933 144.869 C 240.530 144.137,239.946 143.327,239.635 143.069 C 239.159 142.675,239.141 142.727,239.523 143.400 M171.469 144.425 C 171.727 144.741,172.537 145.349,173.269 145.775 C 174.104 146.261,174.425 146.335,174.131 145.975 C 173.873 145.659,173.063 145.051,172.331 144.625 C 171.496 144.139,171.175 144.065,171.469 144.425 M195.000 147.752 C 193.211 148.433,191.857 149.333,193.165 148.971 C 194.588 148.578,196.800 147.619,196.800 147.395 C 196.800 147.134,196.430 147.208,195.000 147.752 M182.876 149.660 C 184.048 149.990,189.027 149.985,190.577 149.653 C 191.225 149.514,189.549 149.400,186.854 149.400 C 184.158 149.400,182.368 149.517,182.876 149.660 M165.600 156.743 C 165.600 157.671,165.798 157.973,166.470 158.072 C 167.429 158.213,168.725 160.118,168.771 161.454 C 168.787 161.924,169.244 162.599,169.787 162.955 C 170.335 163.314,170.681 163.845,170.565 164.148 C 170.440 164.472,170.690 164.783,171.179 164.910 C 171.664 165.037,171.918 165.349,171.795 165.669 C 171.680 165.967,172.229 166.817,173.014 167.557 C 174.193 168.670,174.398 169.097,174.197 170.015 C 173.981 170.997,174.088 171.156,175.120 171.382 C 176.551 171.697,178.682 173.779,178.002 174.199 C 177.747 174.357,177.186 174.107,176.754 173.643 C 176.322 173.179,175.661 172.805,175.284 172.812 C 174.648 172.823,174.649 172.853,175.300 173.232 C 175.685 173.456,176.000 173.870,176.000 174.152 C 176.000 174.434,176.495 174.896,177.100 175.179 C 177.705 175.461,178.470 175.852,178.800 176.047 C 179.130 176.242,179.822 176.584,180.339 176.806 C 180.855 177.028,181.371 177.567,181.485 178.005 C 181.707 178.852,182.585 179.072,183.008 178.387 C 183.158 178.145,183.595 178.394,184.061 178.987 C 185.021 180.207,185.820 180.277,186.493 179.200 C 187.067 178.280,188.201 178.098,187.863 178.980 C 187.556 179.781,188.773 181.112,190.100 181.426 C 191.080 181.658,191.200 181.576,191.200 180.667 C 191.200 179.485,191.810 178.927,192.146 179.802 C 192.476 180.665,193.639 180.537,193.881 179.612 C 194.076 178.865,194.150 178.857,195.319 179.461 C 196.267 179.952,196.716 179.995,197.270 179.649 C 197.665 179.402,198.279 179.200,198.633 179.200 C 199.897 179.200,201.600 177.863,201.600 176.870 C 201.600 176.011,201.744 175.929,203.000 176.076 C 203.770 176.166,204.400 176.105,204.400 175.942 C 204.400 175.778,204.895 175.407,205.500 175.118 C 206.147 174.809,206.655 174.204,206.734 173.650 C 206.808 173.132,207.168 172.626,207.534 172.526 C 208.317 172.312,209.832 170.400,209.219 170.400 C 208.590 170.400,208.715 169.287,209.386 168.912 C 209.708 168.731,210.023 167.957,210.086 167.192 L 210.200 165.800 208.203 165.709 C 203.226 165.482,197.036 163.212,197.389 161.742 C 197.521 161.188,197.371 160.798,196.964 160.642 C 196.094 160.308,196.081 160.313,195.876 161.100 C 195.730 161.659,195.683 161.673,195.646 161.168 C 195.621 160.820,195.150 160.294,194.600 160.000 C 194.030 159.695,193.597 159.107,193.594 158.632 C 193.590 158.144,193.466 157.982,193.294 158.240 C 192.718 159.103,191.143 159.703,190.677 159.237 C 190.047 158.607,189.200 158.700,189.200 159.400 C 189.200 160.251,188.531 160.146,188.299 159.259 C 188.075 158.400,185.318 157.900,182.456 158.199 C 181.497 158.299,180.350 158.187,179.906 157.950 C 177.273 156.541,170.561 156.844,169.590 158.417 C 169.171 159.094,168.232 158.393,167.494 156.854 C 166.748 155.297,165.600 155.230,165.600 156.743 M221.494 168.420 C 219.326 168.953,216.729 170.361,217.026 170.843 C 217.166 171.069,217.578 171.135,217.940 170.990 C 220.913 169.798,224.936 169.320,228.200 169.771 L 229.800 169.992 228.200 169.230 C 226.187 168.272,223.446 167.941,221.494 168.420 M234.705 169.083 C 235.202 169.179,235.922 169.175,236.305 169.075 C 236.687 168.975,236.280 168.896,235.400 168.901 C 234.520 168.905,234.207 168.987,234.705 169.083 M239.971 171.146 C 240.436 172.014,241.600 172.800,242.423 172.800 C 243.116 172.800,242.329 171.957,240.792 171.055 C 239.525 170.310,239.524 170.310,239.971 171.146 M213.845 172.254 C 209.651 175.330,203.760 181.600,205.064 181.600 C 205.168 181.600,206.366 180.452,207.726 179.049 C 210.617 176.067,214.605 172.800,215.354 172.800 C 216.025 172.800,217.286 171.419,216.934 171.068 C 216.438 170.572,215.808 170.814,213.845 172.254 M244.270 174.745 C 244.387 175.195,244.928 175.854,245.471 176.210 C 246.688 177.007,246.265 175.926,244.865 174.659 C 244.077 173.945,244.061 173.948,244.270 174.745 M248.000 180.084 C 248.000 180.424,248.299 180.949,248.665 181.251 C 249.274 181.753,249.287 181.715,248.811 180.800 C 248.114 179.459,248.000 179.358,248.000 180.084 M192.092 182.075 C 192.179 182.336,192.464 182.621,192.725 182.708 C 193.018 182.806,193.107 182.623,192.957 182.233 C 192.678 181.506,191.852 181.355,192.092 182.075 M204.016 182.581 C 203.751 182.900,203.601 183.485,203.682 183.881 C 203.790 184.405,203.956 184.248,204.295 183.300 C 204.805 181.869,204.742 181.706,204.016 182.581 M198.400 191.200 C 198.400 191.420,198.760 191.600,199.200 191.600 C 199.640 191.600,200.131 191.614,200.290 191.630 C 200.450 191.647,200.644 191.466,200.723 191.230 C 200.805 190.985,200.335 190.800,199.633 190.800 C 198.955 190.800,198.400 190.980,198.400 191.200 M85.200 195.600 C 85.200 196.260,85.349 196.800,85.531 196.800 C 85.713 196.800,85.782 196.260,85.685 195.600 C 85.588 194.940,85.440 194.400,85.355 194.400 C 85.270 194.400,85.200 194.940,85.200 195.600 M101.270 197.326 C 100.791 197.835,100.400 198.555,100.400 198.926 C 100.400 200.115,101.060 199.648,101.707 198.000 C 102.441 196.133,102.420 196.101,101.270 197.326 M92.667 197.067 C 92.179 197.554,92.391 198.400,93.000 198.400 C 93.333 198.400,93.600 198.044,93.600 197.600 C 93.600 196.803,93.174 196.560,92.667 197.067 M86.040 198.500 C 86.018 199.325,86.180 200.000,86.400 200.000 C 86.858 200.000,86.858 199.430,86.400 198.000 C 86.114 197.108,86.075 197.161,86.040 198.500 M224.464 208.237 C 223.822 208.689,223.046 208.831,221.994 208.690 C 221.069 208.566,220.029 208.707,219.376 209.046 C 218.596 209.451,218.148 209.489,217.776 209.180 C 217.108 208.626,214.405 209.122,214.125 209.851 C 214.009 210.153,213.610 210.400,213.237 210.400 C 212.354 210.400,211.600 211.174,211.600 212.080 C 211.600 212.476,211.420 212.800,211.200 212.800 C 210.980 212.800,210.800 213.304,210.800 213.920 C 210.800 214.536,210.585 215.255,210.321 215.519 C 209.950 215.890,210.008 216.117,210.578 216.534 C 211.241 217.019,211.249 217.096,210.656 217.323 C 209.850 217.633,209.783 218.800,210.572 218.800 C 210.887 218.800,211.222 219.205,211.318 219.700 L 211.491 220.600 211.546 219.700 C 211.623 218.425,212.388 218.584,212.917 219.986 C 213.752 222.197,222.200 222.934,225.751 221.104 C 226.288 220.827,226.599 220.871,226.845 221.259 C 227.107 221.672,227.189 221.680,227.194 221.290 C 227.197 221.010,227.651 220.609,228.203 220.399 C 228.755 220.189,229.160 219.789,229.103 219.509 C 229.039 219.190,229.420 219.007,230.123 219.018 C 231.687 219.042,234.589 216.367,234.280 215.185 C 234.141 214.653,234.344 214.056,234.830 213.570 C 235.889 212.511,235.802 211.934,234.626 212.229 C 233.904 212.411,233.518 212.258,233.130 211.637 C 232.534 210.682,229.715 210.445,228.880 211.280 C 228.507 211.653,228.400 211.619,228.400 211.127 C 228.400 210.381,227.253 210.013,224.900 210.005 C 223.965 210.002,223.200 209.808,223.200 209.573 C 223.200 209.338,223.515 209.244,223.900 209.364 C 224.840 209.656,225.711 209.059,225.539 208.241 C 225.410 207.625,225.334 207.625,224.464 208.237 M237.730 271.324 C 237.937 272.848,237.816 273.598,237.149 274.924 L 236.306 276.600 237.496 275.480 L 238.686 274.359 239.123 275.480 C 239.363 276.096,239.823 277.523,240.144 278.651 C 240.465 279.778,241.239 281.470,241.864 282.410 C 243.166 284.369,243.178 284.390,244.350 286.800 C 245.740 289.657,247.748 292.146,249.231 292.849 C 249.984 293.207,251.796 294.050,253.257 294.725 C 255.237 295.638,256.238 296.400,257.180 297.713 C 258.534 299.597,270.642 306.097,276.200 307.923 C 279.187 308.904,281.401 310.033,289.059 314.477 C 292.391 316.411,295.451 318.116,295.859 318.266 C 296.266 318.416,298.165 319.402,300.077 320.456 C 301.989 321.510,304.024 322.491,304.598 322.635 C 305.173 322.780,307.929 324.061,310.722 325.482 C 313.515 326.904,316.610 328.399,317.600 328.805 C 319.221 329.470,327.539 333.779,333.800 337.199 C 337.866 339.420,340.731 340.800,341.278 340.801 C 341.565 340.802,342.400 341.169,343.133 341.616 C 344.448 342.417,346.226 343.176,351.075 345.006 C 352.437 345.519,354.057 346.290,354.675 346.719 C 355.294 347.148,356.359 347.837,357.041 348.250 C 360.580 350.389,362.826 352.150,364.951 354.453 C 369.733 359.635,372.057 361.848,373.510 362.604 C 376.935 364.387,382.391 371.732,383.015 375.400 C 383.164 376.280,383.723 377.648,384.256 378.440 C 385.742 380.647,388.614 393.274,388.946 399.059 C 388.987 399.767,389.235 400.000,389.951 400.000 C 390.865 400.000,390.892 399.919,390.634 397.900 C 390.487 396.745,390.263 394.765,390.135 393.500 C 390.008 392.235,389.790 391.199,389.652 391.198 C 389.513 391.197,389.367 390.560,389.327 389.781 C 389.252 388.327,387.796 382.711,387.193 381.549 C 387.007 381.191,386.732 380.246,386.583 379.449 C 386.433 378.652,386.151 378.000,385.955 378.000 C 385.760 378.000,385.600 377.460,385.600 376.800 C 385.600 376.140,385.448 375.600,385.263 375.600 C 385.078 375.600,384.719 374.906,384.464 374.057 C 383.988 372.466,380.665 367.158,378.835 365.063 C 377.903 363.995,377.085 363.177,375.178 361.403 C 374.836 361.085,373.911 360.555,373.123 360.226 C 372.224 359.850,370.892 358.617,369.546 356.914 C 367.560 354.400,366.597 353.412,363.400 350.602 C 361.686 349.096,354.850 344.654,354.071 344.540 C 353.710 344.487,353.351 344.254,353.274 344.022 C 353.197 343.790,352.734 343.600,352.247 343.600 C 351.759 343.600,351.189 343.442,350.980 343.249 C 350.771 343.057,349.520 342.502,348.200 342.018 C 345.859 341.159,334.354 335.575,333.453 334.860 C 332.960 334.470,324.944 330.211,323.000 329.307 C 322.340 329.000,321.487 328.580,321.105 328.374 C 320.723 328.168,320.038 328.000,319.582 328.000 C 319.126 328.000,318.864 327.820,319.000 327.600 C 319.136 327.380,318.958 327.200,318.604 327.200 C 318.251 327.200,317.216 326.840,316.306 326.400 C 315.395 325.960,314.313 325.600,313.901 325.600 C 313.490 325.600,313.250 325.442,313.370 325.249 C 313.489 325.055,313.072 324.794,312.442 324.668 C 311.812 324.542,311.018 324.160,310.677 323.820 C 310.336 323.479,309.594 323.200,309.029 323.200 C 308.463 323.200,308.000 323.058,308.000 322.884 C 308.000 322.710,305.030 321.063,301.400 319.224 C 297.770 317.385,294.800 315.717,294.800 315.517 C 294.800 315.317,294.640 315.251,294.445 315.372 C 294.250 315.493,293.868 315.323,293.596 314.996 C 293.324 314.668,292.929 314.400,292.718 314.400 C 292.507 314.400,291.224 313.745,289.867 312.945 C 285.477 310.357,284.786 310.000,284.164 310.000 C 283.828 310.000,283.664 309.820,283.800 309.600 C 283.936 309.380,283.677 309.200,283.224 309.200 C 282.771 309.200,282.400 309.020,282.400 308.800 C 282.400 308.580,282.076 308.400,281.680 308.400 C 280.786 308.400,278.807 307.506,278.803 307.100 C 278.801 306.935,278.451 306.800,278.025 306.800 C 277.598 306.800,276.265 306.260,275.063 305.600 C 273.860 304.940,272.589 304.400,272.238 304.400 C 271.887 304.400,271.600 304.220,271.600 304.000 C 271.600 303.780,271.402 303.600,271.161 303.600 C 270.919 303.600,269.254 302.900,267.461 302.045 C 265.667 301.189,263.792 300.366,263.294 300.216 C 262.784 300.062,262.505 299.753,262.656 299.509 C 262.805 299.268,262.739 299.190,262.507 299.334 C 262.278 299.475,261.868 299.323,261.596 298.996 C 261.324 298.668,260.786 298.400,260.400 298.400 C 259.539 298.400,258.993 297.746,258.648 296.300 C 258.503 295.695,258.194 295.200,257.962 295.200 C 257.729 295.200,257.026 294.687,256.399 294.060 C 255.743 293.404,254.440 292.716,253.329 292.439 C 250.731 291.791,248.759 290.770,248.234 289.800 C 247.995 289.360,247.706 288.910,247.590 288.800 C 247.475 288.690,246.942 287.758,246.406 286.728 C 245.870 285.699,245.289 284.945,245.116 285.052 C 244.942 285.159,244.800 284.922,244.801 284.524 C 244.802 283.832,243.261 280.417,242.760 280.000 C 242.627 279.890,242.420 279.350,242.299 278.800 C 241.375 274.611,240.426 272.346,238.994 270.919 L 237.469 269.400 237.730 271.324 M232.253 280.230 C 230.303 282.106,228.795 283.728,228.902 283.835 C 229.186 284.120,231.200 283.135,231.200 282.712 C 231.200 282.514,232.061 281.418,233.113 280.276 C 237.289 275.744,236.939 275.725,232.253 280.230 M226.349 285.863 C 226.047 286.228,223.235 288.572,220.100 291.072 C 216.965 293.571,214.400 295.700,214.400 295.802 C 214.400 296.327,217.574 294.232,218.333 293.205 C 218.818 292.549,219.796 291.717,220.507 291.356 C 222.272 290.458,227.877 285.200,227.069 285.200 C 226.975 285.200,226.651 285.499,226.349 285.863 M125.136 287.900 C 124.278 289.641,124.207 290.250,124.287 295.186 C 124.352 299.256,124.230 300.858,123.787 301.747 C 123.464 302.394,123.197 303.390,123.194 303.961 C 123.189 304.779,123.105 304.872,122.800 304.400 C 122.492 303.923,122.408 304.006,122.393 304.800 C 122.370 306.055,121.967 306.575,119.036 309.137 C 117.736 310.273,116.476 311.593,116.236 312.070 C 115.996 312.547,115.550 313.019,115.244 313.120 C 114.929 313.224,114.801 313.123,114.948 312.885 C 115.567 311.882,110.511 314.830,109.692 315.948 C 109.193 316.630,108.339 317.300,107.795 317.437 C 107.251 317.574,106.899 317.837,107.014 318.023 C 107.263 318.426,105.722 319.322,105.265 319.040 C 105.089 318.932,104.471 319.283,103.890 319.821 C 103.310 320.360,102.377 320.800,101.817 320.800 C 101.258 320.800,100.800 320.980,100.800 321.200 C 100.800 321.420,100.530 321.600,100.200 321.600 C 99.870 321.600,99.600 321.780,99.600 322.000 C 99.600 322.220,99.240 322.400,98.800 322.400 C 98.360 322.400,98.000 322.580,98.000 322.800 C 98.000 323.020,97.730 323.200,97.400 323.200 C 97.070 323.200,96.799 323.335,96.797 323.500 C 96.793 323.906,94.814 324.800,93.920 324.800 C 93.524 324.800,93.200 324.980,93.200 325.200 C 93.200 325.420,92.840 325.600,92.400 325.600 C 91.960 325.600,91.600 325.780,91.600 326.000 C 91.600 326.220,91.139 326.400,90.576 326.400 C 89.996 326.400,89.660 326.573,89.800 326.800 C 89.936 327.020,89.687 327.200,89.247 327.200 C 88.807 327.200,88.336 327.380,88.200 327.600 C 88.064 327.820,87.434 328.000,86.800 328.000 C 86.166 328.000,85.536 328.180,85.400 328.400 C 85.264 328.620,84.803 328.800,84.376 328.800 C 83.949 328.800,83.600 328.980,83.600 329.200 C 83.600 329.420,83.161 329.600,82.624 329.600 C 82.087 329.600,81.536 329.780,81.400 330.000 C 81.264 330.220,80.803 330.400,80.376 330.400 C 79.949 330.400,79.600 330.588,79.600 330.818 C 79.600 331.047,79.375 331.188,79.100 331.131 C 78.825 331.073,77.543 331.515,76.252 332.113 C 74.960 332.711,73.745 333.200,73.552 333.200 C 73.358 333.200,73.200 333.355,73.200 333.545 C 73.200 333.956,68.939 336.077,66.400 336.929 C 64.406 337.598,60.675 339.579,60.467 340.080 C 60.393 340.256,60.076 340.400,59.761 340.400 C 59.083 340.400,57.752 341.126,56.645 342.100 C 56.207 342.485,55.422 342.800,54.901 342.800 C 54.371 342.800,54.062 342.976,54.200 343.200 C 54.336 343.420,54.187 343.600,53.869 343.600 C 53.021 343.600,51.169 344.635,51.473 344.939 C 51.616 345.083,51.402 345.200,50.997 345.200 C 50.592 345.200,48.807 345.902,47.030 346.761 C 45.254 347.619,42.900 348.628,41.800 349.002 C 37.078 350.607,34.992 351.419,34.867 351.700 C 34.793 351.865,34.449 352.000,34.102 352.000 C 33.754 352.000,32.713 352.444,31.788 352.986 C 30.862 353.528,29.992 353.858,29.853 353.719 C 29.714 353.580,29.600 353.677,29.600 353.933 C 29.600 354.190,29.465 354.379,29.300 354.353 C 28.503 354.227,27.978 354.440,28.200 354.800 C 28.336 355.020,28.185 355.200,27.864 355.200 C 27.099 355.200,23.936 357.002,24.213 357.280 C 24.332 357.398,23.791 357.798,23.012 358.167 C 22.233 358.537,21.192 359.258,20.698 359.770 C 20.204 360.282,18.835 361.353,17.655 362.150 C 16.475 362.948,15.755 363.601,16.055 363.603 C 16.355 363.604,16.060 363.963,15.400 364.400 C 14.740 364.837,13.894 365.196,13.520 365.197 C 13.146 365.199,12.696 365.444,12.520 365.742 C 12.344 366.039,11.761 366.514,11.225 366.796 C 8.938 367.998,4.432 372.667,3.331 374.975 C 2.967 375.740,2.538 376.285,2.380 376.187 C 2.110 376.021,1.472 377.469,1.548 378.074 C 1.567 378.225,1.325 379.080,1.009 379.974 C -0.168 383.310,2.030 381.036,3.767 377.119 C 5.130 374.049,11.190 367.951,13.744 367.081 C 14.907 366.685,16.757 365.454,18.521 363.902 C 23.268 359.727,29.180 355.892,33.603 354.120 C 34.811 353.635,38.500 352.171,41.800 350.865 C 45.100 349.560,49.960 347.334,52.600 345.919 C 55.240 344.504,57.985 343.143,58.699 342.895 C 59.413 342.646,60.583 342.003,61.299 341.467 C 62.994 340.196,65.616 338.889,68.377 337.939 C 69.595 337.520,71.771 336.477,73.212 335.621 C 75.834 334.063,80.188 332.000,80.853 332.000 C 81.181 332.000,86.767 329.697,90.678 327.950 C 91.601 327.537,92.511 327.200,92.700 327.200 C 92.889 327.200,95.188 326.103,97.809 324.762 C 100.430 323.421,103.480 321.985,104.587 321.570 C 106.485 320.860,109.766 318.665,112.000 316.613 C 112.550 316.107,113.700 315.448,114.556 315.147 C 115.412 314.846,116.379 314.193,116.705 313.695 C 117.031 313.198,118.724 311.611,120.466 310.169 C 124.019 307.230,127.059 302.049,126.358 300.127 C 126.182 299.644,126.202 299.197,126.402 299.127 C 126.618 299.051,126.613 298.351,126.392 297.400 C 125.593 293.972,126.196 290.770,127.164 293.300 C 127.544 294.294,129.093 295.841,129.400 295.533 C 129.507 295.426,128.921 294.549,128.098 293.585 C 126.643 291.882,126.602 291.748,126.671 288.916 C 126.754 285.510,126.421 285.290,125.136 287.900 M130.000 296.299 C 130.000 296.654,133.001 299.246,134.000 299.754 C 134.330 299.922,134.266 299.787,133.857 299.454 C 133.448 299.121,132.413 298.201,131.557 297.408 C 130.701 296.616,130.000 296.117,130.000 296.299 M210.000 298.632 C 205.865 301.473,201.540 304.117,196.700 306.762 C 194.995 307.694,193.600 308.529,193.600 308.618 C 193.600 308.918,195.694 307.987,196.814 307.190 C 197.424 306.756,198.047 306.400,198.198 306.400 C 198.990 306.400,214.000 296.652,214.000 296.138 C 214.000 295.893,213.851 295.985,210.000 298.632 M136.000 300.959 C 136.000 301.255,140.219 304.000,140.674 304.000 C 140.962 304.000,139.819 303.174,137.100 301.418 C 136.495 301.028,136.000 300.821,136.000 300.959 M148.000 307.789 C 148.000 308.106,150.900 309.233,151.128 309.005 C 151.241 308.892,151.235 308.800,151.116 308.800 C 150.996 308.800,150.246 308.528,149.449 308.195 C 148.652 307.862,148.000 307.679,148.000 307.789 M190.995 310.186 C 188.624 311.834,188.379 311.954,184.000 313.641 C 182.130 314.361,180.010 315.276,179.288 315.675 C 177.704 316.550,176.269 316.606,175.615 315.819 C 174.945 315.011,171.534 314.124,168.200 313.891 L 165.400 313.695 167.537 314.213 C 168.713 314.497,170.074 315.106,170.563 315.565 C 171.052 316.024,171.748 316.400,172.111 316.400 C 172.474 316.400,173.632 316.726,174.685 317.125 C 175.738 317.524,176.780 317.827,177.000 317.798 C 178.604 317.584,180.856 316.640,181.762 315.800 C 182.591 315.032,183.272 314.800,184.696 314.800 C 186.757 314.800,188.873 313.636,189.562 312.124 C 189.785 311.633,190.695 310.751,191.584 310.163 C 192.992 309.231,193.470 308.800,193.095 308.800 C 193.038 308.800,192.093 309.424,190.995 310.186 M154.685 310.845 C 155.353 311.513,160.330 313.203,161.518 313.166 C 162.278 313.142,162.004 312.981,160.600 312.625 C 159.500 312.346,157.625 311.737,156.433 311.272 C 155.241 310.807,154.455 310.615,154.685 310.845 M191.825 318.048 C 192.505 319.363,193.037 319.376,192.621 318.067 C 192.483 317.631,192.104 317.172,191.780 317.048 C 191.278 316.855,191.284 317.002,191.825 318.048 M190.400 319.200 C 189.915 319.514,189.972 319.589,190.700 319.594 C 191.195 319.597,191.600 319.420,191.600 319.200 C 191.600 318.699,191.176 318.699,190.400 319.200 M182.600 326.800 C 182.896 327.279,184.685 327.279,185.800 326.800 C 186.386 326.548,186.032 326.449,184.476 326.428 C 183.156 326.411,182.446 326.551,182.600 326.800 M200.050 329.670 C 200.575 330.407,201.022 330.733,201.118 330.446 C 201.296 329.913,200.107 328.400,199.511 328.400 C 199.310 328.400,199.552 328.971,200.050 329.670 " stroke="none" fill="#5c4b51" fill-rule="evenodd"></path></g></svg>